<?xml version="1.0" encoding="UTF-8"?><svg id="a" xmlns="http://www.w3.org/2000/svg" viewBox="0 0 52.6 58.851"><path id="b" d="M26.3,50.542c-.734,0-1.445-.191-2.056-.555l-14.494-8.365c-1.264-.726-2.05-2.086-2.05-3.55v-16.74c0-1.464.786-2.824,2.051-3.55l14.499-8.369c.62-.361,1.329-.553,2.05-.553s1.43.191,2.053.554l.374.223,2.351,1.362c.072-.011.146-.017.223-.017.882,0,1.6.717,1.6,1.6s-.718,1.6-1.6,1.6c-.834,0-1.521-.642-1.594-1.458l-2.147-1.227-.095-.083-.202-.096c-.301-.169-.631-.257-.962-.257s-.662.088-.956.253l-14.494,8.367c-.585.343-.95.975-.95,1.65v16.74c0,.675.365,1.309.953,1.652l14.497,8.368c.285.162.614.249.95.249s.666-.087.953-.251l14.497-8.368c.586-.342.951-.975.951-1.65v-11.87c0-.617.482-1.1,1.1-1.1s1.1.483,1.1,1.1v11.87c0,1.464-.786,2.824-2.051,3.55l-14.498,8.369c-.606.359-1.316.551-2.051.551Z" fill="#d3c5ed"/><path id="c" d="M28.425,58.791c-.062.034-.21.06-.361.06-.47,0-.903-.252-1.131-.657-.113-.224-.163-.424-.163-.642,0-.466.251-.897.656-1.126l21.724-12.546c.524-.307.851-.873.851-1.478v-25.4c0-.604-.327-1.171-.854-1.479L27.15,2.825c-.258-.146-.553-.223-.85-.223s-.594.079-.857.227L3.45,15.525c-.523.306-.85.873-.85,1.477v25.4c0,.604.327,1.172.854,1.479l7.54,4.346c.101-.017.202-.025.307-.025.903,0,1.668.677,1.781,1.575.019.084.019.176.019.225,0,.562-.274,1.106-.735,1.456-.333.231-.688.344-1.065.344-.846,0-1.576-.596-1.757-1.408l-7.393-4.269c-1.326-.761-2.15-2.188-2.15-3.723v-25.4c0-1.535.824-2.962,2.151-3.724L24.15.579c.649-.379,1.393-.579,2.15-.579s1.501.201,2.153.581l21.997,12.699c1.325.761,2.149,2.188,2.149,3.723v25.4c0,1.535-.824,2.962-2.151,3.724l-18.067,10.425" fill="#d3c5ed"/><path d="M27.477,32.108c-.167,0-.318-.098-.385-.25l-.631-1.404h-1.532l-.631,1.405c-.067.151-.219.249-.385.249h-.044l-.131-.038c-.101-.045-.18-.128-.22-.233-.041-.105-.038-.221.009-.324l1.784-3.969.067-.101.082-.072.085-.045.107-.027.106.003.101.028.096.057.084.089,1.823,4.038c.046.104.049.219.009.323-.04.106-.119.189-.223.235l-.039.018-.133.02ZM26.081,29.609l-.386-.859-.386.859h.772Z" fill="#d3c5ed"/><path d="M28.688,32.108c-.233,0-.423-.189-.423-.423v-3.967c0-.233.189-.422.423-.422s.422.189.422.422v3.967c0,.233-.189.423-.422.423Z" fill="#d3c5ed"/><path d="M26.272,42.702c-.964,0-1.883-.387-2.732-1.149-.759-.683-1.435-1.645-2.007-2.861-.067-.144-.133-.289-.197-.438-.52.062-1.018.093-1.483.093-.458,0-.898-.029-1.307-.087-.86-.121-1.603-.367-2.208-.733-.265.113-.553.173-.842.173-1.183,0-2.145-.962-2.145-2.145,0-.824.49-1.589,1.23-1.939.175-1.206.801-2.553,1.817-3.912-.583-.779-1.038-1.553-1.353-2.302-.321-.762-.494-1.491-.515-2.17-.201-.133-.374-.3-.516-.498-.312-.433-.438-.963-.351-1.491.157-.974.988-1.681,1.975-1.681.106,0,.214.008.321.026.199.032.391.093.569.182.597-.321,1.315-.536,2.136-.64.373-.047.771-.071,1.185-.071.471,0,.97.031,1.485.092.064-.148.13-.295.197-.438.572-1.215,1.248-2.178,2.007-2.861.849-.763,1.768-1.15,2.732-1.15s1.883.387,2.732,1.15c.76.683,1.435,1.646,2.007,2.861.067.144.134.29.197.438.515-.061,1.014-.092,1.485-.092.326,0,.642.015.944.044.752.073,1.425.236,2.003.486.377-.242.812-.369,1.264-.369.626,0,1.215.244,1.657.685.442.442.687,1.031.687,1.659s-.244,1.215-.687,1.657c-.173.172-.367.315-.579.424-.073.625-.269,1.289-.581,1.977-.308.678-.73,1.377-1.256,2.08.538.721.968,1.437,1.277,2.13.315.703.507,1.382.568,2.019.722.396,1.182,1.165,1.182,1.99,0,1.251-1.018,2.269-2.269,2.269-.419,0-.824-.114-1.18-.332-.585.266-1.268.439-2.033.52-.321.032-.654.049-1,.049-.466,0-.964-.031-1.483-.093-.063.148-.13.295-.197.438-.57,1.214-1.246,2.177-2.007,2.86-.849.764-1.768,1.15-2.732,1.15ZM22.84,38.076c.489,1.04,1.05,1.848,1.666,2.402.575.517,1.169.778,1.766.778s1.191-.262,1.767-.778c.617-.556,1.178-1.364,1.666-2.402l.032-.07c-1.12-.241-2.284-.604-3.465-1.082-1.18.478-2.344.841-3.464,1.082l.032.07ZM17.434,36.47c.634.282,1.463.431,2.416.431.306,0,.629-.016.964-.046-.353-1.09-.621-2.28-.796-3.542-1.003-.783-1.9-1.609-2.668-2.46-.656.931-1.093,1.833-1.276,2.636.919.256,1.567,1.094,1.567,2.065,0,.317-.071.631-.206.916ZM31.731,36.854c.327.029.646.044.95.044.791,0,1.507-.102,2.086-.296-.087-.242-.131-.497-.131-.761,0-1.096.801-2.036,1.859-2.231-.169-.835-.614-1.779-1.3-2.756-.768.849-1.663,1.675-2.668,2.459-.177,1.264-.445,2.453-.797,3.541ZM36.905,35.018c-.454,0-.823.369-.823.823s.369.823.823.823.823-.369.823-.823-.369-.823-.823-.823ZM28.146,36.074c.729.241,1.443.431,2.134.567.227-.664.419-1.379.575-2.132-.433.285-.879.561-1.332.822-.45.26-.911.509-1.377.742ZM21.689,34.51c.156.752.349,1.467.576,2.132.69-.137,1.406-.326,2.134-.567-.465-.233-.926-.481-1.376-.742-.45-.26-.897-.535-1.333-.822ZM15.495,34.854c-.386,0-.7.314-.7.7s.314.699.7.699.7-.313.7-.699-.314-.7-.7-.7ZM21.374,32.529c.749.554,1.545,1.076,2.37,1.552.826.477,1.676.905,2.528,1.276.854-.37,1.703-.8,2.527-1.276.826-.477,1.623-.999,2.372-1.553.104-.918.157-1.868.157-2.826s-.053-1.909-.157-2.826c-.747-.553-1.545-1.075-2.371-1.553-.826-.477-1.676-.906-2.528-1.276-.851.37-1.701.799-2.528,1.276-.831.48-1.628,1.002-2.371,1.553-.105.922-.158,1.873-.158,2.826s.053,1.903.158,2.827ZM18.259,29.702c.464.53.986,1.054,1.557,1.562-.03-.516-.045-1.039-.045-1.562s.015-1.048.045-1.562c-.57.509-1.093,1.032-1.557,1.562ZM32.728,28.139c.029.515.045,1.039.045,1.563s-.015,1.048-.045,1.562c.569-.508,1.092-1.032,1.558-1.562-.464-.529-.986-1.053-1.558-1.563ZM16.004,25.531c.119.898.58,1.934,1.345,3.02.767-.848,1.663-1.674,2.667-2.459.176-1.262.444-2.452.796-3.542-.33-.03-.651-.044-.958-.044-.908,0-1.708.134-2.33.391.113.316.144.653.09.987-.086.529-.372.992-.806,1.303-.242.174-.517.292-.805.345ZM32.528,26.092c1.005.784,1.901,1.61,2.668,2.458.664-.947,1.104-1.866,1.283-2.683-.464-.085-.896-.311-1.231-.648-.643-.642-.853-1.599-.553-2.441-.566-.179-1.258-.272-2.015-.272-.305,0-.622.015-.949.044.352,1.088.62,2.278.797,3.542ZM28.146,23.33c.466.234.928.483,1.376.742.449.259.896.535,1.333.822-.156-.753-.349-1.468-.575-2.132-.69.137-1.406.327-2.134.567ZM22.265,22.762c-.227.667-.42,1.381-.576,2.132.433-.285.88-.561,1.333-.822.454-.262.916-.51,1.377-.742-.727-.24-1.442-.43-2.134-.567ZM36.905,22.665c-.241,0-.467.093-.636.262-.17.17-.263.396-.263.636s.093.466.263.635c.169.169.395.263.636.263s.467-.093.636-.262c.17-.17.263-.396.263-.636s-.093-.467-.263-.637c-.169-.169-.395-.262-.636-.262ZM15.639,23.006c-.27,0-.505.201-.549.467-.049.303.158.589.46.639.017,0,.034,0,.05,0,.176,0,.277-.036.365-.099.121-.086.2-.215.223-.361.024-.147-.01-.294-.097-.416-.087-.12-.216-.2-.362-.224l-.09-.007ZM22.808,21.399c1.12.24,2.284.604,3.464,1.082,1.183-.479,2.347-.842,3.465-1.082l-.032-.071c-.489-1.04-1.05-1.848-1.666-2.401-.576-.518-1.171-.78-1.767-.78s-1.19.262-1.766.78c-.616.554-1.177,1.361-1.666,2.401l-.032.071Z" fill="#d3c5ed"/></svg>