<?xml version="1.0" encoding="UTF-8"?><svg id="a" xmlns="http://www.w3.org/2000/svg" viewBox="0 0 52.729 59"><path id="b" d="M26.364,50.394c-.736,0-1.449-.191-2.061-.556l-14.531-8.386c-1.267-.728-2.055-2.091-2.055-3.559v-16.782c0-1.468.788-2.831,2.056-3.559l14.536-8.39c.622-.362,1.332-.554,2.055-.554s1.434.191,2.058.555l.375.224,2.357,1.365c.072-.011.146-.017.224-.017.884,0,1.604.719,1.604,1.604s-.72,1.604-1.604,1.604c-.836,0-1.525-.644-1.598-1.462l-2.152-1.23-.095-.083-.203-.096c-.302-.169-.633-.258-.964-.258s-.664.088-.958.254l-14.531,8.388c-.586.344-.952.977-.952,1.654v16.782c0,.677.366,1.312.955,1.656l14.534,8.389c.286.162.616.25.952.25s.668-.087.955-.252l14.534-8.389c.587-.343.953-.977.953-1.654v-11.9c0-.619.483-1.103,1.103-1.103s1.103.484,1.103,1.103v11.9c0,1.468-.788,2.831-2.056,3.559l-14.535,8.39c-.608.36-1.319.552-2.056.552h-.003Z" fill="#66d3fa"/><path id="c" d="M28.495,58.94c-.062.034-.211.06-.362.06-.471,0-.905-.253-1.134-.659-.113-.225-.163-.425-.163-.644,0-.467.252-.899.658-1.129l21.779-12.578c.525-.308.853-.875.853-1.482v-25.464c0-.606-.328-1.174-.856-1.483L27.217,2.832c-.259-.146-.554-.224-.852-.224s-.596.079-.859.228L3.457,15.564c-.524.307-.852.875-.852,1.481v25.464c0,.606.328,1.175.856,1.483l7.559,4.357c.101-.017.203-.025.308-.025.905,0,1.672.679,1.786,1.579.019.084.019.176.019.226,0,.563-.275,1.109-.737,1.46-.334.232-.69.345-1.068.345-.848,0-1.58-.598-1.761-1.412l-7.412-4.28c-1.329-.763-2.155-2.194-2.155-3.732v-25.464c0-1.539.826-2.969,2.156-3.733L24.209.58c.651-.38,1.397-.58,2.155-.58s1.505.202,2.158.582l22.053,12.731c1.328.763,2.154,2.194,2.154,3.732v25.464c0,1.539-.826,2.969-2.156,3.733l-18.113,10.451" fill="#66d3fa"/><path d="M26.288,42.399l-.158-.058-4.311-2.488c-.156-.088-.253-.256-.253-.438v-1.604l-1.458.842s-.175.027-.176.027c-.102,0-.191-.025-.268-.072l-4.287-2.475c-.155-.088-.252-.256-.252-.438v-4.958c0-.182.098-.35.255-.438l1.387-.8-1.389-.803c-.156-.09-.253-.258-.253-.438v-4.956c0-.18.097-.347.251-.437l4.364-2.52s.174-.027.175-.027c.098,0,.185.023.26.067l1.389.802v-1.605c0-.182.098-.35.255-.438l4.36-2.518s.174-.028.175-.028c.1,0,.187.024.264.07l4.361,2.518.11.139c.047.074.071.166.071.258v1.604l1.459-.842s.175-.027.176-.027c.099,0,.185.023.26.067l4.292,2.478c.156.092.253.26.253.438v4.958c0,.181-.097.349-.252.438l-1.389.802,1.39.802c.155.089.251.257.251.438v4.958c0,.181-.097.349-.252.438l-4.363,2.519s-.174.027-.175.027c-.104,0-.194-.026-.272-.075l-1.377-.794v1.604c0,.179-.092.341-.245.435l-4.37,2.522-.179.027h-.082ZM25.859,41.021v-3.792l-3.283-1.896v3.792s3.283,1.896,3.283,1.896ZM26.87,41.02l3.283-1.896v-3.792l-3.283,1.896v3.792ZM33.31,37.302l3.284-1.896v-3.792l-3.284,1.896v3.792ZM32.301,37.301v-3.849l-1.641-.892-1.138.657,1.459.843.11.139c.047.075.071.167.071.259v2.188l1.138.655ZM20.43,37.301l1.136-.655v-2.274l.038-.088-.008-.062v-.098l.098-.002c.042-.058.098-.101.195-.132l1.321-.771-1.139-.657-1.642.946v3.792ZM19.419,37.301v-3.792l-3.283-1.896v3.792l3.283,1.896ZM26.415,36.382l3.235-1.923-1.188-.686-1.906,1.157-.097.02c-.021,0-.04,0-.059,0-.16,0-.229-.02-.296-.061l-1.887-1.089-1.136.656,3.333,1.924ZM26.819,29.821l.048,3.763,3.286-1.896v-3.792l-3.334,1.925ZM25.859,33.583v-3.792l-3.283-1.895v3.791l3.283,1.896ZM19.975,32.663l1.591-.974v-1.314l-1.467.846-.097.021h-.019c-.154,0-.239-.023-.313-.066l-1.892-1.093-1.136.656,3.333,1.924ZM32.855,32.663l3.234-1.923-1.188-.686-1.91,1.159-.113.022h-.039c-.146,0-.22-.021-.29-.061l-1.387-.801v1.312l1.692.976ZM16.136,28.025l3.283,1.841v-3.85l-3.283-1.84v3.849ZM33.26,26.103l.048,3.763,3.336-1.926-.048-3.763-3.336,1.926ZM32.301,29.864v-3.847l-3.284-1.84v1.314l1.895,1.094c.155.089.252.257.252.437v2.188l1.138.655ZM20.43,29.864l1.136-.655v-2.259l.053-.155.067-.091c.006-.017.036-.06.117-.11l1.96-1.132-.044-1.286-3.289,1.898v3.79ZM26.364,28.917l3.283-1.896-3.283-1.896-3.282,1.896,3.282,1.896ZM32.805,25.199l3.283-1.896-3.283-1.896-3.282,1.896,3.282,1.896ZM19.924,25.199l3.283-1.896-3.282-1.896-3.283,1.896,3.283,1.895ZM28.007,24.906v-1.699l.027-.092c.091-.149.153-.21.229-.252l1.939-1.12-.044-1.287-3.34,1.928.049,1.866,1.139.657ZM22.576,21.829l1.872,1.024.032.01.079.046.092.133c.048.083.072.17.072.26v1.604l1.136-.656v-1.953l-3.283-1.84v1.372ZM26.364,21.48l3.283-1.896-3.283-1.896-3.283,1.896,3.283,1.896Z" fill="#66d3fa"/></svg>