<?xml version="1.0" encoding="UTF-8"?><svg id="a" xmlns="http://www.w3.org/2000/svg" viewBox="0 0 52.729 59"><path id="b" d="M26.364,50.394c-.736,0-1.449-.191-2.061-.556l-14.531-8.386c-1.267-.728-2.055-2.091-2.055-3.559v-16.782c0-1.468.788-2.831,2.056-3.559l14.536-8.39c.622-.362,1.332-.554,2.055-.554s1.434.191,2.058.555l.375.224,2.357,1.365c.072-.011.146-.017.224-.017.884,0,1.604.719,1.604,1.604s-.72,1.604-1.604,1.604c-.836,0-1.525-.644-1.598-1.462l-2.152-1.23-.095-.083-.203-.096c-.302-.169-.633-.258-.964-.258s-.664.088-.958.254l-14.531,8.388c-.586.344-.952.977-.952,1.654v16.782c0,.677.366,1.312.955,1.656l14.534,8.389c.286.162.616.25.952.25s.668-.087.955-.252l14.534-8.389c.587-.343.953-.977.953-1.654v-11.9c0-.619.483-1.103,1.103-1.103s1.103.484,1.103,1.103v11.9c0,1.468-.788,2.831-2.056,3.559l-14.535,8.39c-.608.36-1.319.552-2.056.552h-.003Z" fill="#a0e9cc"/><path id="c" d="M28.495,58.94c-.062.034-.211.06-.362.06-.471,0-.905-.253-1.134-.659-.113-.225-.163-.425-.163-.644,0-.467.252-.899.658-1.129l21.779-12.578c.525-.308.853-.875.853-1.482v-25.464c0-.606-.328-1.174-.856-1.483L27.217,2.832c-.259-.146-.554-.224-.852-.224s-.596.079-.859.228L3.457,15.564c-.524.307-.852.875-.852,1.481v25.464c0,.606.328,1.175.856,1.483l7.559,4.357c.101-.017.203-.025.308-.025.905,0,1.672.679,1.786,1.579.019.084.019.176.019.226,0,.563-.275,1.109-.737,1.46-.334.232-.69.345-1.068.345-.848,0-1.58-.598-1.761-1.412l-7.412-4.28c-1.329-.763-2.155-2.194-2.155-3.732v-25.464c0-1.539.826-2.969,2.156-3.733L24.209.58c.651-.38,1.397-.58,2.155-.58s1.505.202,2.158.582l22.053,12.731c1.328.763,2.154,2.194,2.154,3.732v25.464c0,1.539-.826,2.969-2.156,3.733l-18.113,10.451" fill="#a0e9cc"/><path d="M26.365,35.418c-.233,0-.422-.189-.422-.422v-.135c-2.612-.207-4.733-2.328-4.938-4.939h-.137c-.233,0-.422-.189-.422-.422s.189-.422.422-.422h.137c.206-2.612,2.326-4.733,4.938-4.938v-.136c0-.233.189-.422.422-.422s.422.19.422.422v.136c2.612.206,4.732,2.326,4.938,4.938h.135c.233,0,.422.19.422.422s-.189.422-.422.422h-.135c-.206,2.611-2.326,4.732-4.938,4.939v.135c0,.233-.19.422-.422.422ZM21.851,29.922c.201,2.145,1.946,3.89,4.092,4.093.004-.228.192-.414.421-.414s.418.186.422.414c2.145-.202,3.89-1.947,4.092-4.093-.228-.005-.413-.192-.413-.421s.185-.417.412-.422c-.201-2.145-1.945-3.89-4.091-4.091-.006.228-.192.412-.422.412s-.416-.184-.421-.412c-2.145.201-3.89,1.946-4.092,4.091.228.005.412.192.412.422s-.185.416-.412.421Z" fill="#a0e9cc"/><path d="M23.813,32.379c-.086,0-.171-.034-.231-.095-.1-.1-.124-.253-.059-.379l1.733-3.37c.032-.062.081-.11.142-.141l3.368-1.733c.047-.024.098-.036.15-.036.087,0,.168.034.23.095.101.102.124.254.059.381l-1.734,3.37c-.03.06-.079.109-.141.141l-3.369,1.734c-.047.023-.098.035-.149.035ZM25.762,28.938l-1.196,2.36,2.402-1.235,1.196-2.36-2.403,1.236Z" fill="#a0e9cc"/><path d="M26.365,30.141c-.353,0-.64-.287-.64-.64s.287-.64.64-.64.64.287.64.64-.287.64-.64.64ZM26.365,29.322c-.098,0-.179.08-.179.179s.08.179.179.179.179-.08.179-.179-.08-.179-.179-.179Z" fill="#a0e9cc"/><path d="M18.066,40.2c-.355,0-.655-.3-.655-.654v-20.092c0-.354.3-.654.655-.654h13.103c.081,0,.151,0,.264.056q.066.027,2.549,2.188l1.092.951c.087.085.189.218.238.418l.006,17.134c0,.354-.3.654-.654.654h-16.597ZM34.009,38.856v-15.743h-2.84c-.354,0-.654-.3-.654-.654v-2.42h-11.83v18.817h15.324ZM32.941,21.805l-1.153-1.003v1.003h1.153Z" fill="#a0e9cc"/></svg>