<?xml version="1.0" encoding="UTF-8"?><svg id="a" xmlns="http://www.w3.org/2000/svg" viewBox="0 0 52.6 58.851"><path id="b" d="M26.3,50.542c-.734,0-1.445-.191-2.056-.555l-14.494-8.365c-1.264-.726-2.05-2.086-2.05-3.55v-16.74c0-1.464.786-2.824,2.051-3.55l14.499-8.369c.62-.361,1.329-.553,2.05-.553s1.43.191,2.053.554l.374.223,2.351,1.362c.072-.011.146-.017.223-.017.882,0,1.6.717,1.6,1.6s-.718,1.6-1.6,1.6c-.834,0-1.521-.642-1.594-1.458l-2.147-1.227-.095-.083-.202-.096c-.301-.169-.631-.257-.962-.257s-.662.088-.956.253l-14.494,8.367c-.585.343-.95.975-.95,1.65v16.74c0,.675.365,1.309.953,1.652l14.497,8.368c.285.162.614.249.95.249s.666-.087.953-.251l14.497-8.368c.586-.342.951-.975.951-1.65v-11.87c0-.617.482-1.1,1.1-1.1s1.1.483,1.1,1.1v11.87c0,1.464-.786,2.824-2.051,3.55l-14.498,8.369c-.606.359-1.316.551-2.051.551Z" fill="#7f4fc9"/><path id="c" d="M28.425,58.791c-.062.034-.21.06-.361.06-.47,0-.903-.252-1.131-.657-.113-.224-.163-.424-.163-.642,0-.466.251-.897.656-1.126l21.724-12.546c.524-.307.851-.873.851-1.478v-25.4c0-.604-.327-1.171-.854-1.479L27.15,2.825c-.258-.146-.553-.223-.85-.223s-.594.079-.857.227L3.45,15.525c-.523.306-.85.873-.85,1.477v25.4c0,.604.327,1.172.854,1.479l7.54,4.346c.101-.017.202-.025.307-.025.903,0,1.668.677,1.781,1.575.019.084.019.176.019.225,0,.562-.274,1.106-.735,1.456-.333.231-.688.344-1.065.344-.846,0-1.576-.596-1.757-1.408l-7.393-4.269c-1.326-.761-2.15-2.188-2.15-3.723v-25.4c0-1.535.824-2.962,2.151-3.724L24.15.579c.649-.379,1.393-.579,2.15-.579s1.501.201,2.153.581l21.997,12.699c1.325.761,2.149,2.188,2.149,3.723v25.4c0,1.535-.824,2.962-2.151,3.724l-18.067,10.425" fill="#7f4fc9"/><path d="M26.3,42.103c-1.672,0-3.296-.328-4.827-.975-1.476-.624-2.802-1.519-3.941-2.657-1.139-1.14-2.033-2.466-2.657-3.941-.647-1.529-.976-3.153-.976-4.827s.328-3.298.976-4.827c.624-1.476,1.518-2.802,2.656-3.941,1.14-1.139,2.466-2.033,3.942-2.656,1.528-.647,3.152-.976,4.826-.976s3.298.328,4.827.976c1.476.624,2.802,1.518,3.941,2.656,1.139,1.14,2.033,2.466,2.657,3.941.646,1.531.975,3.155.975,4.827s-.328,3.296-.975,4.827c-.625,1.477-1.52,2.802-2.657,3.941-1.14,1.138-2.465,2.032-3.941,2.657-1.531.646-3.155.975-4.827.975ZM25.768,40.755c.176.008.354.013.532.013h.068v-5.136c-.542-.319-.873-.895-.873-1.531,0-.981.798-1.779,1.779-1.779.628,0,1.218.343,1.535.882h3.676c.317-.539.907-.882,1.535-.882.981,0,1.779.798,1.779,1.779,0,.675-.376,1.282-.969,1.584v1.058c1.489-1.803,2.374-4.04,2.515-6.373h-4.174c-.331.48-.87.764-1.461.764-.981,0-1.779-.798-1.779-1.779,0-.722.451-1.38,1.112-1.649v-7.999c-.303-.144-.613-.275-.928-.392v8.017c0,.703-.542,1.282-1.23,1.34-.29.619-.921,1.026-1.611,1.026s-1.322-.408-1.612-1.028c-.696-.066-1.229-.641-1.229-1.338v-8.538c-1.116.191-2.216.563-3.23,1.089.672.073,1.198.645,1.198,1.337v4.709c.567.31.927.909.927,1.561,0,.981-.798,1.779-1.779,1.779-.637,0-1.23-.349-1.546-.899h-3.019v1.625h2.103v4.065h.813c.269-.661.927-1.111,1.649-1.111.981,0,1.779.798,1.779,1.779,0,.651-.36,1.25-.927,1.561v1.466c0,.208-.047.404-.132.58h3.5v2.419ZM27.703,40.679c2.121-.274,4.167-1.184,5.792-2.578v-2.301c-.59-.182-1.047-.664-1.198-1.262h-3.299c-.159.631-.663,1.132-1.295,1.288v4.853ZM23.577,40.429c.283.071.57.132.856.181v-.938h-.856v.758ZM20.464,39.101c.565.352,1.16.652,1.777.896v-1.607c-.227.423-.673.711-1.186.711h-.592ZM21.056,37.766l.008-1.323c-.53-.149-.96-.533-1.166-1.045h-3.083c.525.871,1.168,1.666,1.915,2.368h2.325ZM21.548,34.285c-.245,0-.444.199-.444.444s.199.444.444.444.444-.199.444-.444-.199-.444-.444-.444ZM34.021,33.656c-.244,0-.443.199-.443.444s.199.444.443.444.444-.199.444-.444-.199-.444-.444-.444ZM27.274,33.656c-.245,0-.444.199-.444.444s.199.444.444.444.444-.199.444-.444-.199-.444-.444-.444ZM17.751,32.95v-1.618h-2.396c.082.548.204,1.091.367,1.618h2.03ZM31.711,28.911c-.244,0-.443.199-.443.444s.199.444.443.444.444-.199.444-.444-.199-.444-.444-.444ZM37.345,29.035c-.211-3.482-2.049-6.651-4.966-8.575v7.246c.56.228.972.735,1.082,1.329h3.884ZM27.274,27.475c-.245,0-.444.199-.444.444s.199.444.444.444.444-.199.444-.444-.199-.444-.444-.444ZM21.548,27.047c-.245,0-.444.199-.444.444s.199.444.444.444.444-.199.444-.444-.199-.444-.444-.444ZM19.827,27.036c.16-.608.632-1.088,1.238-1.257v-4.558l-1.852-.01c-1.801,1.505-3.09,3.563-3.653,5.825h4.268ZM25.768,26.972c.318-.508.88-.833,1.506-.833.621,0,1.18.32,1.499.821l.007-8.043c-.81-.186-1.644-.28-2.48-.28-.178,0-.356.004-.532.012v8.322Z" fill="#7f4fc9"/></svg>