<?xml version="1.0" encoding="UTF-8"?><svg id="a" xmlns="http://www.w3.org/2000/svg" viewBox="0 0 52.729 59"><path id="b" d="M26.364,50.394c-.736,0-1.449-.191-2.061-.556l-14.531-8.386c-1.267-.728-2.055-2.091-2.055-3.559v-16.782c0-1.468.788-2.831,2.056-3.559l14.536-8.39c.622-.362,1.332-.554,2.055-.554s1.434.191,2.058.555l.375.224,2.357,1.365c.072-.011.146-.017.224-.017.884,0,1.604.719,1.604,1.604s-.72,1.604-1.604,1.604c-.836,0-1.525-.644-1.598-1.462l-2.152-1.23-.095-.083-.203-.096c-.302-.169-.633-.258-.964-.258s-.664.088-.958.254l-14.531,8.388c-.586.344-.952.977-.952,1.654v16.782c0,.677.366,1.312.955,1.656l14.534,8.389c.286.162.616.25.952.25s.668-.087.955-.252l14.534-8.389c.587-.343.953-.977.953-1.654v-11.9c0-.619.483-1.103,1.103-1.103s1.103.484,1.103,1.103v11.9c0,1.468-.788,2.831-2.056,3.559l-14.535,8.39c-.608.36-1.319.552-2.056.552h-.003Z" fill="#66d3fa"/><path id="c" d="M28.495,58.94c-.062.034-.211.06-.362.06-.471,0-.905-.253-1.134-.659-.113-.225-.163-.425-.163-.644,0-.467.252-.899.658-1.129l21.779-12.578c.525-.308.853-.875.853-1.482v-25.464c0-.606-.328-1.174-.856-1.483L27.217,2.832c-.259-.146-.554-.224-.852-.224s-.596.079-.859.228L3.457,15.564c-.524.307-.852.875-.852,1.481v25.464c0,.606.328,1.175.856,1.483l7.559,4.357c.101-.017.203-.025.308-.025.905,0,1.672.679,1.786,1.579.019.084.019.176.019.226,0,.563-.275,1.109-.737,1.46-.334.232-.69.345-1.068.345-.848,0-1.58-.598-1.761-1.412l-7.412-4.28c-1.329-.763-2.155-2.194-2.155-3.732v-25.464c0-1.539.826-2.969,2.156-3.733L24.209.58c.651-.38,1.397-.58,2.155-.58s1.505.202,2.158.582l22.053,12.731c1.328.763,2.154,2.194,2.154,3.732v25.464c0,1.539-.826,2.969-2.156,3.733l-18.113,10.451" fill="#66d3fa"/><path d="M22.618,28.646h-.626c-.01.052-.016.105-.016.16v6.356c0,.48.422.87.943.87h6.891c.521,0,.943-.389.943-.87v-6.356c0-.055-.006-.108-.016-.16h-.626l-.77-.71h-5.953l-.77.71ZM28.2,34.068h-3.671c-.148,0-.27-.112-.27-.249s.121-.249.27-.249h3.671c.148,0,.27.112.27.249s-.121.249-.27.249ZM27.65,30.357c0-.207.184-.377.408-.377h.822c.225,0,.408.169.408.377v.758c0,.207-.184.377-.408.377h-.822c-.225,0-.408-.169-.408-.377v-.758ZM23.44,30.357c0-.207.184-.377.408-.377h.822c.225,0,.408.169.408.377v.758c0,.207-.184.377-.408.377h-.822c-.225,0-.408-.169-.408-.377v-.758Z" fill="#66d3fa"/><path d="M28.338,27.49l1.367-1.318v-.692l.547-.657v-.919l-1.21.084,1.227-.306.349-.566v-1.094l-.816-.578-1.245.399-.527.865.225-1.073,1.28-.381-.034-.983-1.277-.723-.607,1.465.344-1.518-1.465-.364v8.03l.919.331h.923ZM27.316,23.988l1.463,1.003-1.463,1.419.9-1.28-.9-1.142Z" fill="#66d3fa"/><path d="M32.9,27.676c-.2,0-.371.118-.436.283h-2.045l-1.083-.999-.224.206,1.176,1.085h2.176c.044.112.139.198.257.245v1.615c-.392-.48-1.014-.792-1.716-.792v3.965c.944,0,1.745-.563,2.033-1.344h.041v-.125c.048-.164.076-.336.076-.514s-.028-.35-.076-.514v-2.288c.167-.065.285-.217.285-.395,0-.236-.208-.428-.464-.428ZM32.9,27.968c.082,0,.148.061.148.137s-.067.137-.148.137-.148-.061-.148-.137.066-.137.148-.137Z" fill="#66d3fa"/><path d="M32.9,22.679c-.2,0-.371.118-.436.283h-1.517v.292h1.517c.065.165.236.283.436.283.256,0,.464-.192.464-.428s-.208-.428-.464-.428ZM32.9,23.244c-.082,0-.148-.061-.148-.137s.066-.137.148-.137.148.061.148.137-.067.137-.148.137Z" fill="#66d3fa"/><path d="M30.326,18.574h2.138c.065.165.236.283.436.283.256,0,.464-.192.464-.428s-.208-.428-.464-.428c-.2,0-.371.118-.436.283h-2.269l-1.369,1.263.28.172,1.22-1.144ZM32.9,18.292c.082,0,.148.061.148.137s-.067.137-.148.137-.148-.061-.148-.137.066-.137.148-.137Z" fill="#66d3fa"/><path d="M19.829,18.857c.2,0,.371-.118.436-.283h2.138l1.22,1.144.28-.172-1.369-1.263h-2.269c-.065-.165-.236-.283-.436-.283-.256,0-.464.192-.464.428s.208.428.464.428ZM19.829,18.292c.082,0,.148.061.148.137s-.066.137-.148.137-.148-.061-.148-.137.066-.137.148-.137Z" fill="#66d3fa"/><path d="M19.829,23.535c.2,0,.371-.118.436-.283h1.517v-.292h-1.517c-.065-.165-.236-.283-.436-.283-.256,0-.464.192-.464.428s.208.428.464.428ZM19.829,22.97c.082,0,.148.061.148.137s-.066.137-.148.137-.148-.061-.148-.137.066-.137.148-.137Z" fill="#66d3fa"/><path d="M23.266,20.27l-.034.983,1.28.381.225,1.073-.527-.865-1.245-.399-.816.578v1.094l.349.566,1.227.306-1.21-.084v.919l.547.657v.692l1.367,1.318h.923l.919-.331v-8.03l-1.465.364.344,1.518-.607-1.465-1.277.723ZM25.449,23.988l-.9,1.142.9,1.28-1.463-1.419,1.463-1.003Z" fill="#66d3fa"/><path d="M26.829,38.995v-2.267h-.667v2.267c-.452.131-.782.516-.782.977,0,.568.499,1.029,1.115,1.029s1.115-.461,1.115-1.029c0-.46-.33-.845-.782-.977Z" fill="#66d3fa"/><path d="M31.694,38.943c-.143,0-.278.027-.404.072l-1.75-1.615v-.672h-.667v.927l1.893,1.747c-.118.163-.187.359-.187.57,0,.568.499,1.029,1.115,1.029s1.115-.461,1.115-1.029-.499-1.029-1.115-1.029Z" fill="#66d3fa"/><path d="M23.452,37.4l-1.75,1.615c-.126-.045-.261-.072-.404-.072-.616,0-1.115.461-1.115,1.029s.499,1.029,1.115,1.029,1.115-.461,1.115-1.029c0-.211-.069-.407-.187-.57l1.893-1.747v-.927h-.667v.672Z" fill="#66d3fa"/><path d="M21.535,29.318c-.597,0-1.137.225-1.527.588v-1.411c.118-.046.213-.133.257-.245h2.176l1.176-1.085-.223-.206-1.083.999h-2.045c-.065-.165-.236-.283-.436-.283-.256,0-.464.192-.464.428,0,.178.118.33.285.395v1.849c-.168.283-.264.607-.264.952,0,1.095.962,1.983,2.149,1.983v-3.965ZM19.829,27.968c.082,0,.148.061.148.137s-.066.137-.148.137-.148-.061-.148-.137.066-.137.148-.137Z" fill="#66d3fa"/></svg>