<?xml version="1.0" encoding="UTF-8"?><svg id="a" xmlns="http://www.w3.org/2000/svg" viewBox="0 0 52.731 59"><path id="b" d="M26.365,50.394c-.736,0-1.449-.191-2.061-.556l-14.531-8.386c-1.267-.728-2.055-2.091-2.055-3.559v-16.782c0-1.468.788-2.831,2.056-3.559l14.536-8.39c.622-.362,1.332-.554,2.055-.554s1.434.191,2.058.555l.375.224,2.357,1.365c.072-.011.146-.017.224-.017.884,0,1.604.719,1.604,1.604s-.72,1.604-1.604,1.604c-.836,0-1.525-.644-1.598-1.462l-2.152-1.23-.095-.083-.203-.096c-.302-.169-.633-.258-.964-.258s-.664.088-.958.254l-14.531,8.388c-.586.344-.952.977-.952,1.654v16.782c0,.677.366,1.312.955,1.656l14.534,8.389c.286.162.616.25.952.25s.668-.087.955-.252l14.534-8.389c.587-.343.953-.977.953-1.654v-11.9c0-.619.483-1.103,1.103-1.103s1.103.484,1.103,1.103v11.9c0,1.468-.788,2.831-2.056,3.559l-14.535,8.39c-.608.36-1.319.552-2.056.552h-.002Z" fill="#f28500"/><path id="c" d="M28.496,58.94c-.062.034-.211.06-.362.06-.471,0-.905-.253-1.134-.659-.113-.225-.163-.425-.163-.644,0-.467.252-.899.658-1.129l21.779-12.578c.525-.308.853-.875.853-1.482v-25.464c0-.606-.328-1.174-.856-1.483L27.218,2.832c-.259-.146-.554-.224-.852-.224s-.596.079-.859.228L3.458,15.564c-.524.307-.852.875-.852,1.481v25.464c0,.606.328,1.175.856,1.483l7.559,4.357c.101-.017.203-.025.308-.025.905,0,1.672.679,1.786,1.579.019.084.019.176.019.226,0,.563-.275,1.109-.737,1.46-.334.232-.69.345-1.068.345-.848,0-1.58-.598-1.761-1.412l-7.412-4.28c-1.329-.763-2.155-2.194-2.155-3.732v-25.464c0-1.539.826-2.969,2.156-3.733L24.21.58c.651-.38,1.397-.58,2.155-.58s1.505.202,2.158.582l22.053,12.731c1.328.763,2.154,2.194,2.154,3.732v25.464c0,1.539-.826,2.969-2.156,3.733l-18.113,10.451" fill="#f28500"/><path d="M28.219,37.493c-.418,0-.848-.056-1.279-.165-.429-.11-1.76-.436-1.76-.436l-.792-.195-2.3-.568c-.074-.019-.298-.074-.439-.31-.853-1.42-1.845-3.073-2.835-4.705-.157-.26-.137-.517.059-.743,1.013-1.163,2.253-1.752,3.687-1.752,1.703.026,2.996.758,3.925,2.176.083.125.135.155.229.177.586.137,1.178.283,1.755.425l1.492.366c.348.084.842.257,1.123.791.263.497.242,1.018-.063,1.468-.279.411-.694.628-1.201.628-.048,0-.097-.002-.146-.006-.211-.017-.414-.069-.61-.12l-3.268-.808c-.058-.016-.108-.027-.157-.035l-.366-.029.242.067c-.017.062.028.106.076.126l.033.269.084-.237,1.046.257c.861.214,1.751.436,2.628.644.157.037.308.056.452.056.438,0,.812-.168,1.143-.514.259-.271.389-.62.385-1.037-.003-.252.104-.435.326-.562l4.045-2.333c.247-.146.417-.247.593-.337.234-.121.496-.185.758-.185.257,0,.513.062.738.18.452.236.75.66.817,1.162.076.567-.198,1.079-.754,1.402l-3.47,2.032c-1.225.721-2.488,1.465-3.741,2.179-.781.446-1.609.673-2.457.673ZM25.833,36.309c.425.104.859.21,1.286.32.369.095.738.142,1.097.142.724,0,1.431-.194,2.103-.577,1.282-.732,2.576-1.494,3.828-2.231l3.378-1.978c.307-.18.439-.403.401-.683-.035-.267-.195-.492-.437-.619-.127-.067-.263-.1-.405-.1-.147,0-.29.035-.426.106-.173.089-.343.19-.507.288l-.956.555-3.112,1.792c-.006.595-.203,1.095-.584,1.493-.468.49-1.026.737-1.658.737-.201,0-.411-.025-.625-.076-.88-.209-1.772-.43-2.635-.645l-1.045-.257c-.087-.022-.154-.039-.221-.067-.398-.165-.607-.579-.495-.983.095-.348.401-.572.778-.572.051,0,.103.004.156.013.072.013.141.028.217.048l3.219.795c.222.059.379.102.541.115h.02c.346,0,.533-.099.674-.307.156-.23.163-.461.023-.726-.116-.216-.311-.345-.656-.427l-1.438-.353c-.592-.146-1.202-.296-1.804-.437-.285-.067-.491-.216-.667-.484-.79-1.207-1.885-1.829-3.252-1.85l-.07-.251v.251c-1.194,0-2.236.489-3.096,1.453.984,1.625,1.962,3.254,2.803,4.656l2.045.486.951.234h0s.569.141.569.141Z" fill="#f28500"/><path d="M17.612,39.584c-.059,0-.117-.008-.176-.025-.263-.042-.396-.263-.46-.369l-3.768-6.225c-.222-.406-.127-.756.268-.988l1.993-1.167c.418-.245.865-.511,1.407-.837.184-.11.339-.161.49-.161h.031l.125.019c.262.067.414.279.506.433l3.603,6.025c.279.509.192.854-.208,1.11-.176.113-.358.222-.536.328l-2.816,1.692c-.125.076-.269.164-.459.164ZM17.344,30.541c-.019.007-.05.022-.096.05-.546.327-.994.593-1.414.841l-1.994,1.166.062.125,3.691,6.094.22.21-.114-.225,2.76-1.658c.191-.115.387-.231.574-.351l.233-.193-.251.067-3.607-6.032c-.029-.048-.051-.076-.065-.092Z" fill="#f28500"/><path d="M30.859,31.049c-.243,0-.475-.11-.729-.346-.144-.134-.28-.277-.411-.415-.131-.136-.226-.181-.34-.181-.047,0-.099.008-.155.023l-.175.048c-.182.051-.37.102-.56.14-.089.019-.17.026-.248.026-.264,0-.621-.106-.811-.609-.076-.203-.128-.416-.177-.622-.08-.335-.203-.462-.442-.512-.271-.057-.502-.122-.704-.199-.48-.181-.667-.502-.588-1.011.037-.235.101-.458.176-.705.078-.257.029-.432-.17-.606-.145-.126-.282-.262-.41-.404-.429-.479-.428-.927.003-1.411.124-.14.232-.244.338-.329.273-.219.334-.444.21-.774-.093-.251-.147-.48-.163-.701-.029-.436.177-.763.567-.897.21-.073.461-.155.722-.209.263-.056.395-.191.451-.468.049-.235.104-.437.167-.615.155-.439.434-.661.83-.661.09,0,.186.011.292.034.199.044.397.098.59.152.146.041.204.049.255.049.117,0,.212-.046.312-.147.228-.236.396-.408.581-.559.197-.163.39-.242.586-.242s.39.079.587.241c.207.168.395.361.584.561.096.1.19.145.306.145.046,0,.097-.007.153-.021l.261-.07c.152-.042.307-.084.466-.117.09-.019.177-.029.258-.029.27,0,.631.11.818.633.08.221.136.453.189.678.06.248.17.361.397.414.257.06.506.131.742.211.419.143.64.485.591.915,0,.268-.09.52-.169.744-.105.299-.046.504.204.712.117.097.234.21.354.344.434.483.437.932.011,1.412-.154.173-.319.328-.446.443-.173.157-.213.308-.145.539.079.26.134.446.169.635.114.62-.096.967-.698,1.16-.201.064-.401.114-.623.167-.211.051-.315.153-.369.365l-.032.128c-.051.203-.104.413-.176.614-.186.512-.548.619-.819.619-.073,0-.152-.008-.234-.024-.218-.042-.448-.1-.722-.183-.064-.019-.122-.029-.175-.029-.083,0-.197.02-.34.173-.128.14-.263.284-.41.42-.257.238-.49.349-.733.349ZM29.38,29.386c.313,0,.589.122.819.363.173.182.295.308.42.424.139.129.207.157.239.157s.102-.027.244-.16c.126-.117.245-.245.36-.369.26-.28.553-.415.881-.415.123,0,.253.02.383.06.247.075.453.128.647.165.039.007.073.012.105.012.052,0,.083,0,.136-.144.062-.174.11-.361.155-.542l.032-.132c.12-.468.431-.775.899-.887.206-.049.391-.094.572-.153.257-.082.256-.087.209-.343-.029-.158-.078-.319-.125-.474-.172-.579-.051-1.021.326-1.364.167-.151.288-.27.391-.387.18-.203.179-.245-.007-.452-.095-.106-.186-.195-.279-.272-.482-.401-.629-.92-.423-1.5.068-.193.13-.371.13-.544.013-.126.007-.16-.104-.197-.214-.073-.441-.138-.674-.192-.49-.115-.813-.439-.932-.937-.051-.213-.1-.421-.169-.614-.056-.156-.088-.156-.136-.156-.031,0-.07.005-.116.014-.139.029-.279.068-.415.105l-.286.075c-.11.028-.219.042-.325.042-.318,0-.597-.124-.83-.369-.176-.186-.337-.352-.518-.5-.091-.074-.125-.078-.131-.078s-.04.003-.13.077c-.163.134-.315.292-.463.445-.294.302-.574.425-.89.425-.116,0-.236-.017-.358-.051-.266-.074-.452-.126-.636-.166-.057-.012-.103-.018-.139-.018-.052,0-.085,0-.15.181-.053.151-.099.322-.14.522-.116.558-.465.913-1.011,1.027-.226.047-.447.12-.633.185-.057.02-.092.032-.083.166.01.151.049.314.118.499.233.624.083,1.172-.434,1.588-.077.063-.158.141-.253.248-.187.21-.187.244-.004.449.107.12.224.234.346.341.414.361.547.83.387,1.359-.066.215-.122.409-.153.607-.02.126-.005.154-.005.154,0,0,.018.026.136.071.17.065.366.119.598.167.513.107.851.445.977.977.058.242.102.433.168.608.055.144.083.144.131.144.033,0,.069-.005.11-.013.169-.034.34-.082.506-.128l.184-.05c.119-.032.235-.048.345-.048Z" fill="#f28500"/><path d="M28.974,28.488c-.129,0-.253-.041-.359-.118-.214-.156-.304-.43-.222-.682l.584-1.796-1.527-1.11c-.216-.156-.304-.431-.221-.684.081-.251.314-.42.58-.42h1.889l.584-1.796c.083-.257.31-.422.581-.422.265,0,.498.169.58.422l.584,1.796h1.888c.27,0,.497.165.581.422.082.254-.007.528-.222.683l-1.526,1.109.583,1.796c.082.253-.007.527-.221.682-.106.077-.23.118-.358.118-.129,0-.254-.041-.36-.118l-1.526-1.109-1.528,1.109c-.106.077-.229.118-.358.118ZM30.861,26.514c.129,0,.253.04.358.117l1.318.957-.503-1.549c-.082-.252.008-.526.221-.682l1.318-.957h-1.628c-.264,0-.498-.169-.581-.421l-.503-1.549-.504,1.548c-.081.252-.314.422-.58.422h-1.629l1.318.957c.214.156.304.43.222.682l-.503,1.549,1.318-.957c.104-.076.228-.117.358-.117Z" fill="#f28500"/></svg>