<?xml version="1.0" encoding="UTF-8"?><svg id="a" xmlns="http://www.w3.org/2000/svg" viewBox="0 0 52.729 59"><path id="b" d="M26.364,50.394c-.736,0-1.449-.191-2.061-.556l-14.531-8.386c-1.267-.728-2.055-2.091-2.055-3.559v-16.782c0-1.468.788-2.831,2.056-3.559l14.536-8.39c.622-.362,1.332-.554,2.055-.554s1.434.191,2.058.555l.375.224,2.357,1.365c.072-.011.146-.017.224-.017.884,0,1.604.719,1.604,1.604s-.72,1.604-1.604,1.604c-.836,0-1.525-.644-1.598-1.462l-2.152-1.23-.095-.083-.203-.096c-.302-.169-.633-.258-.964-.258s-.664.088-.958.254l-14.531,8.388c-.586.344-.952.977-.952,1.654v16.782c0,.677.366,1.312.955,1.656l14.534,8.389c.286.162.616.25.952.25s.668-.087.955-.252l14.534-8.389c.587-.343.953-.977.953-1.654v-11.9c0-.619.483-1.103,1.103-1.103s1.103.484,1.103,1.103v11.9c0,1.468-.788,2.831-2.056,3.559l-14.535,8.39c-.608.36-1.319.552-2.056.552h-.003Z" fill="#a0e9cc"/><path id="c" d="M28.495,58.94c-.062.034-.211.06-.362.06-.471,0-.905-.253-1.134-.659-.113-.225-.163-.425-.163-.644,0-.467.252-.899.658-1.129l21.779-12.578c.525-.308.853-.875.853-1.482v-25.464c0-.606-.328-1.174-.856-1.483L27.217,2.832c-.259-.146-.554-.224-.852-.224s-.596.079-.859.228L3.457,15.564c-.524.307-.852.875-.852,1.481v25.464c0,.606.328,1.175.856,1.483l7.559,4.357c.101-.017.203-.025.308-.025.905,0,1.672.679,1.786,1.579.019.084.019.176.019.226,0,.563-.275,1.109-.737,1.46-.334.232-.69.345-1.068.345-.848,0-1.58-.598-1.761-1.412l-7.412-4.28c-1.329-.763-2.155-2.194-2.155-3.732v-25.464c0-1.539.826-2.969,2.156-3.733L24.209.58c.651-.38,1.397-.58,2.155-.58s1.505.202,2.158.582l22.053,12.731c1.328.763,2.154,2.194,2.154,3.732v25.464c0,1.539-.826,2.969-2.156,3.733l-18.113,10.451" fill="#a0e9cc"/><path d="M22.432,41.1c-.248,0-.45-.201-.45-.449s.202-.449.45-.449h.479v-.249c0-.464.363-.827.827-.827h1.28v-1.106h-6.496c-.78,0-1.416-.635-1.416-1.415v-12.271c0-.78.639-1.416,1.425-1.416h1.393c.141-1.016.54-1.946,1.187-2.768,1.133-1.429,2.869-2.249,4.762-2.249,1.074,0,2.134.276,3.064.797,2.106,1.175,2.655,3.111,2.791,4.219h2.469c.785,0,1.424.635,1.424,1.416v12.271c0,.78-.635,1.415-1.415,1.415h-6.496v1.106h1.28c.461,0,.836.371.836.827v.249h.471c.248,0,.449.201.449.449s-.201.449-.449.449h-7.865ZM28.928,40.201v-.249l-5.126.062v.187h5.126ZM26.812,39.125v-1.106h-.894v1.106h.894ZM18.007,36.604c0,.284.231.517.516.517h15.684c.284,0,.517-.232.517-.517v-.903h-16.717v.903ZM34.723,34.802v-10.47c0-.285-.241-.525-.525-.525h-2.417c.011.139.044.273.098.393l.921,2.107c.088.178.097.417.021.634-.089.223-.253.394-.453.474-.167.067-.244.132-.256.154.06.206.081.581-.132.878-.021.027-.038.05-.055.07.072.314-.004.58-.206.827h0s-.07.146-.07.461c0,.097,0,.193.018.306.005.027.036.277-.201.527-.258.272-.742.406-1.479.406-.192,0-.404-.01-.634-.027h-1.07v1.28c0,.248-.201.449-.449.449s-.449-.201-.449-.449v-1.729c0-.248.201-.449.449-.449h1.555c.235.018.43.025.594.025.46,0,.685-.058.782-.097-.061-.852.22-1.218.258-1.264-.179-.096-.273-.281-.242-.468.037-.211.208-.367.415-.378.069-.033.065-.16.039-.249-.014-.052-.014-.099-.014-.129,0-.236.097-.664.729-.943l-.896-2.062c-.115-.278-.173-.57-.173-.868,0-.864-.232-3.005-2.378-4.208-.799-.448-1.708-.684-2.63-.684-1.594,0-3.111.714-4.06,1.91-.606.767-.955,1.665-1.037,2.669-.046.637.001,1.266.146,1.939.077.378.205.791.4,1.3.237.591.804,2.158.954,3.918.048.67.035,1.283-.037,1.826-.021.221-.214.391-.449.391-.293-.037-.464-.258-.44-.507.064-.504.073-1.054.027-1.638-.088-1.125-.395-2.392-.886-3.661-.204-.52-.353-.994-.455-1.449-.122-.585-.18-1.152-.17-1.688h-1.333c-.285,0-.525.241-.525.525v10.47h16.717Z" fill="#a0e9cc"/><path d="M26.829,27.956c-.385,0-.748-.139-1.013-.383-.272.245-.636.383-1.011.383-.535,0-1.031-.277-1.283-.71-.414-.028-.858-.338-1.191-.823-.24-.347-.378-.71-.393-1.03-.337-.219-.544-.644-.544-1.124,0-.319.092-.617.26-.849-.141-.208-.214-.453-.214-.715,0-.502.292-.955.75-1.171.082-.883.676-1.542,1.401-1.542.064,0,.131.005.195.015.133-.307.381-.542.692-.652.158-.064.327-.098.496-.098.259,0,.51.079.726.229.041.029.077.058.112.088.04-.038.08-.069.121-.092.208-.146.46-.225.721-.225.17,0,.341.033.507.099.303.107.545.337.687.651.063-.01.129-.015.196-.015.714,0,1.319.673,1.4,1.542.446.215.741.678.741,1.17,0,.262-.073.507-.214.715.168.231.26.529.26.848,0,.48-.207.905-.544,1.124-.015.315-.149.678-.383,1.029-.358.519-.809.828-1.204.828-.211.408-.726.707-1.271.707ZM26.43,22.562c.202,0,.383.134.44.325.061.245-.074.487-.306.557-.006.002-.266.082-.297.375v2.786c0,.25.252.452.562.452.257,0,.475-.141.537-.333-.433-.003-.784-.356-.784-.79s.354-.79.79-.79.79.354.79.79c0,.124-.03.246-.091.363.018.01.034.022.05.035.095-.048.272-.173.438-.417.238-.335.246-.584.238-.616-.087-.138-.077-.338.031-.482.083-.114.216-.179.363-.179.035-.007.142-.129.142-.368,0-.212-.08-.32-.104-.348-.24-.261-.254-.667-.032-.963.061-.068.091-.156.091-.252,0-.036-.005-.07-.013-.104-.229.508-.644.84-1.121.884h-.004c-.271,0-.459-.173-.481-.403-.012-.12.023-.236.099-.327.076-.092.184-.148.304-.16.245-.023.456-.358.481-.762.009-.546-.232-.942-.508-.942-.057,0-.104.01-.146.032.089.125.136.276.136.438,0,.436-.354.79-.79.79s-.79-.354-.79-.79c0-.362.26-.679.608-.763v-.019c0-.204-.092-.344-.222-.395-.053-.02-.112-.03-.175-.03-.102,0-.181.035-.221.068-.116.079-.175.193-.175.328v2.043c.079-.026.121-.032.163-.032ZM24.258,26.713c.059.197.281.343.548.343.31,0,.562-.203.562-.452v-2.755c-.031-.323-.299-.403-.302-.404-.239-.071-.372-.321-.301-.558.057-.191.235-.325.432-.325l.125.019c.016.005.031.01.046.016v-2.045c0-.129-.064-.247-.176-.322-.05-.038-.124-.079-.226-.079-.054,0-.111.012-.171.034-.128.05-.223.191-.23.344,0,.025,0,.047,0,.066.349.073.617.396.617.766,0,.436-.354.79-.79.79s-.79-.354-.79-.79c0-.157.047-.312.13-.438-.055-.024-.096-.033-.141-.033-.275,0-.516.396-.516.847v.111c.033.399.24.724.479.747.25.023.427.237.403.486-.022.231-.213.405-.443.405-.521-.046-.938-.38-1.159-.891-.011.036-.017.072-.017.109,0,.099.029.184.085.246.235.299.225.705-.02.971-.032.037-.111.149-.111.346,0,.219.1.356.137.371h.011c.156,0,.285.065.367.178.107.144.117.344.022.497,0,.015.007.264.237.599.173.245.352.374.442.419.009-.008.019-.016.029-.023-.067-.119-.102-.25-.102-.385,0-.436.354-.79.79-.79s.79.354.79.79c0,.425-.337.773-.758.79ZM27.372,25.803c-.074,0-.13.056-.13.13s.056.13.13.13.131-.056.131-.13-.057-.13-.131-.13ZM24.226,25.793c-.062,0-.13.053-.13.13s.068.13.13.13c.074,0,.13-.056.13-.13s-.056-.13-.13-.13ZM27.243,21.231c-.074,0-.13.056-.13.13s.056.13.13.13.131-.056.131-.13-.057-.13-.131-.13ZM24.391,21.231c-.073,0-.13.057-.13.13s.057.13.13.13c.062,0,.13-.053.13-.13s-.068-.13-.13-.13Z" fill="#a0e9cc"/></svg>