<?xml version="1.0" encoding="UTF-8"?><svg id="a" xmlns="http://www.w3.org/2000/svg" viewBox="0 0 52.731 59"><path id="b" d="M26.365,50.394c-.736,0-1.449-.191-2.061-.556l-14.531-8.386c-1.267-.728-2.055-2.091-2.055-3.559v-16.782c0-1.468.788-2.831,2.056-3.559l14.536-8.39c.622-.362,1.332-.554,2.055-.554s1.434.191,2.058.555l.375.224,2.357,1.365c.072-.011.146-.017.224-.017.884,0,1.604.719,1.604,1.604s-.72,1.604-1.604,1.604c-.836,0-1.525-.644-1.598-1.462l-2.152-1.23-.095-.083-.203-.096c-.302-.169-.633-.258-.964-.258s-.664.088-.958.254l-14.531,8.388c-.586.344-.952.977-.952,1.654v16.782c0,.677.366,1.312.955,1.656l14.534,8.389c.286.162.616.25.952.25s.668-.087.955-.252l14.534-8.389c.587-.343.953-.977.953-1.654v-11.9c0-.619.483-1.103,1.103-1.103s1.103.484,1.103,1.103v11.9c0,1.468-.788,2.831-2.056,3.559l-14.535,8.39c-.608.36-1.319.552-2.056.552h-.002Z" fill="#ffc780"/><path id="c" d="M28.496,58.94c-.062.034-.211.06-.362.06-.471,0-.905-.253-1.134-.659-.113-.225-.163-.425-.163-.644,0-.467.252-.899.658-1.129l21.779-12.578c.525-.308.853-.875.853-1.482v-25.464c0-.606-.328-1.174-.856-1.483L27.218,2.832c-.259-.146-.554-.224-.852-.224s-.596.079-.859.228L3.458,15.564c-.524.307-.852.875-.852,1.481v25.464c0,.606.328,1.175.856,1.483l7.559,4.357c.101-.017.203-.025.308-.025.905,0,1.672.679,1.786,1.579.019.084.019.176.019.226,0,.563-.275,1.109-.737,1.46-.334.232-.69.345-1.068.345-.848,0-1.58-.598-1.761-1.412l-7.412-4.28c-1.329-.763-2.155-2.194-2.155-3.732v-25.464c0-1.539.826-2.969,2.156-3.733L24.21.58c.651-.38,1.397-.58,2.155-.58s1.505.202,2.158.582l22.053,12.731c1.328.763,2.154,2.194,2.154,3.732v25.464c0,1.539-.826,2.969-2.156,3.733l-18.113,10.451" fill="#ffc780"/><path d="M19.866,39.75c-2.068,0-3.75-1.683-3.75-3.75s1.682-3.75,3.75-3.75,3.75,1.683,3.75,3.75-1.682,3.75-3.75,3.75ZM19.866,33.75c-1.241,0-2.25,1.01-2.25,2.25s1.009,2.25,2.25,2.25,2.25-1.01,2.25-2.25-1.009-2.25-2.25-2.25Z" fill="#ffc780"/><path d="M27.866,36.75c-.414,0-.75-.336-.75-.75,0-3.998-3.252-7.25-7.25-7.25-.414,0-.75-.336-.75-.75s.336-.75.75-.75c4.825,0,8.75,3.925,8.75,8.75,0,.414-.336.75-.75.75Z" fill="#ffc780"/><path d="M31.866,36.75c-.414,0-.75-.336-.75-.75,0-6.203-5.047-11.25-11.25-11.25-.414,0-.75-.336-.75-.75s.336-.75.75-.75c7.03,0,12.75,5.72,12.75,12.75,0,.414-.336.75-.75.75Z" fill="#ffc780"/><path d="M35.866,36.75c-.414,0-.75-.336-.75-.75,0-8.409-6.841-15.25-15.25-15.25-.414,0-.75-.336-.75-.75s.336-.75.75-.75c9.236,0,16.75,7.514,16.75,16.75,0,.414-.336.75-.75.75Z" fill="#ffc780"/></svg>