<?xml version="1.0" encoding="UTF-8"?><svg id="a" xmlns="http://www.w3.org/2000/svg" viewBox="0 0 52.729 59"><path id="b" d="M26.364,50.394c-.736,0-1.449-.191-2.061-.556l-14.531-8.386c-1.267-.728-2.055-2.091-2.055-3.559v-16.782c0-1.468.788-2.831,2.056-3.559l14.536-8.39c.622-.362,1.332-.554,2.055-.554s1.434.191,2.058.555l.375.224,2.357,1.365c.072-.011.146-.017.224-.017.884,0,1.604.719,1.604,1.604s-.72,1.604-1.604,1.604c-.836,0-1.525-.644-1.598-1.462l-2.152-1.23-.095-.083-.203-.096c-.302-.169-.633-.258-.964-.258s-.664.088-.958.254l-14.531,8.388c-.586.344-.952.977-.952,1.654v16.782c0,.677.366,1.312.955,1.656l14.534,8.389c.286.162.616.25.952.25s.668-.087.955-.252l14.534-8.389c.587-.343.953-.977.953-1.654v-11.9c0-.619.483-1.103,1.103-1.103s1.103.484,1.103,1.103v11.9c0,1.468-.788,2.831-2.056,3.559l-14.535,8.39c-.608.36-1.319.552-2.056.552h-.003Z" fill="#66d3fa"/><path id="c" d="M28.495,58.94c-.062.034-.211.06-.362.06-.471,0-.905-.253-1.134-.659-.113-.225-.163-.425-.163-.644,0-.467.252-.899.658-1.129l21.779-12.578c.525-.308.853-.875.853-1.482v-25.464c0-.606-.328-1.174-.856-1.483L27.217,2.832c-.259-.146-.554-.224-.852-.224s-.596.079-.859.228L3.457,15.564c-.524.307-.852.875-.852,1.481v25.464c0,.606.328,1.175.856,1.483l7.559,4.357c.101-.017.203-.025.308-.025.905,0,1.672.679,1.786,1.579.019.084.019.176.019.226,0,.563-.275,1.109-.737,1.46-.334.232-.69.345-1.068.345-.848,0-1.58-.598-1.761-1.412l-7.412-4.28c-1.329-.763-2.155-2.194-2.155-3.732v-25.464c0-1.539.826-2.969,2.156-3.733L24.209.58c.651-.38,1.397-.58,2.155-.58s1.505.202,2.158.582l22.053,12.731c1.328.763,2.154,2.194,2.154,3.732v25.464c0,1.539-.826,2.969-2.156,3.733l-18.113,10.451" fill="#66d3fa"/><path d="M15.286,32.079c.182.198.267.45.257.699-.01.249-.115.494-.313.676-.395.364-1.011.339-1.375-.056-.182-.198-.267-.45-.257-.699.01-.249.115-.494.313-.676.395-.364,1.011-.339,1.375.056Z" fill="#66d3fa"/><path d="M28.93,25.934c-.002.025-.006.05-.007.075-.009.219.033.44.126.644l-3.011,2.773-3.011,2.773c-.218-.122-.462-.181-.707-.178l-3.245-9.466c.137-.074.267-.163.385-.271.118-.108.218-.231.302-.362l9.168,4.011Z" fill="#66d3fa"/><path d="M16.33,33.323l4.631.426c.054.237.168.458.337.642.178.194.399.324.634.395l.097,3.706.042,1.609c-.135.054-.263.129-.381.225l-5.795-6.292c.2-.204.348-.445.435-.711Z" fill="#66d3fa"/><path d="M18.128,22.773c.03.001.06,0,.09,0l3.268,9.533c-.036.027-.071.056-.105.088-.148.136-.261.299-.339.478l-4.64-.427c-.057-.357-.217-.69-.467-.962-.239-.259-.54-.44-.872-.53l2.684-8.234c.123.031.251.051.381.056Z" fill="#66d3fa"/><path d="M23.743,33.584c.027-.249-.012-.503-.118-.736l6.022-5.546c.223.124.474.184.724.177l3.484,9.778c-.13.072-.253.157-.364.26-.112.103-.207.218-.289.342l-9.459-4.274Z" fill="#66d3fa"/><path d="M28.732,19.695c.276.299.634.494,1.028.565l.004.159.101,4.315c-.175.062-.341.159-.486.292-.034.031-.066.064-.096.098l-3.143-1.375-6.09-2.664c.003-.03.007-.059.008-.09.005-.126-.003-.251-.022-.373l8.228-1.901c.055.361.216.698.469.972Z" fill="#66d3fa"/><path d="M36.902,25.828c-.172.159-.309.345-.409.549l-4.773-.584c-.049-.247-.162-.485-.345-.683-.177-.192-.396-.323-.63-.393l-.104-4.446v-.06c.26-.08.504-.217.711-.408,0,0,.001-.001.002-.002l5.55,6.026s-.001.001-.002.002Z" fill="#66d3fa"/><path d="M34.823,37.027c-.038-.002-.076,0-.114,0l-3.508-9.845c.031-.024.062-.049.092-.076.139-.128.246-.278.321-.439l4.692.574c.012.449.181.873.488,1.206.231.25.52.427.838.52l-2.462,8.106c-.113-.026-.229-.043-.347-.048Z" fill="#66d3fa"/><path d="M23.738,40.475c-.218-.236-.494-.386-.786-.449l-.137-5.262c.174-.062.338-.159.482-.291.03-.027.057-.056.084-.085l9.523,4.304c-.004.038-.009.075-.01.113-.005.122.002.244.02.362l-8.823,1.962c-.06-.242-.179-.466-.353-.654Z" fill="#66d3fa"/><path d="M19.176,20.96c-.01.249-.115.494-.313.676-.395.364-1.011.339-1.375-.056-.182-.198-.267-.45-.257-.699.01-.249.115-.494.313-.676.395-.364,1.011-.339,1.375.056.182.198.267.45.257.699Z" fill="#66d3fa"/><path d="M30.755,19.154c-.395.364-1.011.339-1.375-.056-.182-.198-.267-.45-.257-.699.01-.249.115-.494.313-.676.395-.364,1.011-.339,1.375.056.182.198.267.45.257.699-.01.249-.115.494-.313.676Z" fill="#66d3fa"/><path d="M37.443,27.851c-.182-.198-.267-.45-.257-.699.01-.249.115-.494.313-.676.395-.364,1.011-.339,1.375.056.182.198.267.45.257.699-.01.249-.115.494-.313.676-.395.364-1.011.339-1.375-.056Z" fill="#66d3fa"/><path d="M33.775,38.841c.01-.249.115-.494.313-.676.395-.364,1.011-.339,1.375.056.182.198.267.45.257.699-.01.249-.115.494-.313.676-.395.364-1.011.339-1.375-.056-.182-.198-.267-.45-.257-.699Z" fill="#66d3fa"/><path d="M21.974,40.776c.395-.364,1.011-.339,1.375.056.182.198.267.45.257.699-.01.249-.115.494-.313.676-.395.364-1.011.339-1.375-.056-.182-.198-.267-.45-.257-.699.01-.249.115-.494.313-.676Z" fill="#66d3fa"/></svg>