<?xml version="1.0" encoding="UTF-8"?><svg id="a" xmlns="http://www.w3.org/2000/svg" viewBox="0 0 52.729 59"><path id="b" d="M26.364,50.394c-.736,0-1.449-.191-2.061-.556l-14.531-8.386c-1.267-.728-2.055-2.091-2.055-3.559v-16.782c0-1.468.788-2.831,2.056-3.559l14.536-8.39c.622-.362,1.332-.554,2.055-.554s1.434.191,2.058.555l.375.224,2.357,1.365c.072-.011.146-.017.224-.017.884,0,1.604.719,1.604,1.604s-.72,1.604-1.604,1.604c-.836,0-1.525-.644-1.598-1.462l-2.152-1.23-.095-.083-.203-.096c-.302-.169-.633-.258-.964-.258s-.664.088-.958.254l-14.531,8.388c-.586.344-.952.977-.952,1.654v16.782c0,.677.366,1.312.955,1.656l14.534,8.389c.286.162.616.25.952.25s.668-.087.955-.252l14.534-8.389c.587-.343.953-.977.953-1.654v-11.9c0-.619.483-1.103,1.103-1.103s1.103.484,1.103,1.103v11.9c0,1.468-.788,2.831-2.056,3.559l-14.535,8.39c-.608.36-1.319.552-2.056.552h-.003Z" fill="#a0e9cc"/><path id="c" d="M28.495,58.94c-.062.034-.211.06-.362.06-.471,0-.905-.253-1.134-.659-.113-.225-.163-.425-.163-.644,0-.467.252-.899.658-1.129l21.779-12.578c.525-.308.853-.875.853-1.482v-25.464c0-.606-.328-1.174-.856-1.483L27.217,2.832c-.259-.146-.554-.224-.852-.224s-.596.079-.859.228L3.457,15.564c-.524.307-.852.875-.852,1.481v25.464c0,.606.328,1.175.856,1.483l7.559,4.357c.101-.017.203-.025.308-.025.905,0,1.672.679,1.786,1.579.019.084.019.176.019.226,0,.563-.275,1.109-.737,1.46-.334.232-.69.345-1.068.345-.848,0-1.58-.598-1.761-1.412l-7.412-4.28c-1.329-.763-2.155-2.194-2.155-3.732v-25.464c0-1.539.826-2.969,2.156-3.733L24.209.58c.651-.38,1.397-.58,2.155-.58s1.505.202,2.158.582l22.053,12.731c1.328.763,2.154,2.194,2.154,3.732v25.464c0,1.539-.826,2.969-2.156,3.733l-18.113,10.451" fill="#a0e9cc"/><path d="M30.571,41.447c-.44,0-.796-.357-.796-.796,0-1.337-.638-2.379-2.133-3.484-.354-.262-.429-.76-.168-1.114.261-.354.76-.429,1.114-.168,1.294.957,2.78,2.363,2.78,4.766,0,.44-.357.796-.796.796Z" fill="#a0e9cc"/><path d="M23.768,34.335c-.191,0-.382-.067-.534-.205-1.316-1.188-1.956-2.528-1.956-4.097,0-3.096,2.456-4.631,4.622-5.985,2.079-1.299,3.874-2.42,3.874-4.634,0-.44.357-.796.796-.796s.796.357.796.796c0,3.096-2.456,4.631-4.622,5.985-2.079,1.299-3.874,2.42-3.874,4.634,0,1.123.441,2.022,1.43,2.915.327.294.353.798.058,1.125-.157.174-.374.262-.591.262Z" fill="#a0e9cc"/><path d="M24.63,24.166c-.164,0-.331-.051-.473-.156-1.294-.957-2.779-2.363-2.779-4.766,0-.44.357-.796.796-.796s.796.357.796.796c0,1.338.638,2.38,2.133,3.485.354.261.428.76.167,1.114-.156.212-.397.323-.641.323Z" fill="#a0e9cc"/><path d="M22.161,40.95c-.44,0-.796-.357-.796-.796,0-3.096,2.455-4.631,4.621-5.984,2.078-1.299,3.873-2.421,3.873-4.634,0-1.123-.441-2.022-1.43-2.915-.327-.295-.352-.798-.057-1.125.297-.329.798-.352,1.125-.058,1.315,1.188,1.955,2.528,1.955,4.097,0,3.096-2.456,4.631-4.621,5.984-2.078,1.299-3.873,2.421-3.873,4.634,0,.44-.357.796-.796.796Z" fill="#a0e9cc"/><path d="M28.134,19.836c-.196,0-.36.111-.452.269-.004,0-.006-.004-.01-.004h-3.255c-.147,0-.265.119-.265.265s.119.265.265.265h3.255s.006-.004.01-.004c.092.158.256.269.452.269.292,0,.531-.238.531-.531s-.239-.531-.531-.531Z" fill="#a0e9cc"/><path d="M24.597,38.95c.196,0,.36.111.452.269.004,0,.006-.004.01-.004h3.255c.147,0,.265.119.265.265s-.119.265-.265.265h-3.255s-.006-.004-.01-.004c-.092.158-.256.269-.452.269-.292,0-.531-.238-.531-.531s.239-.531.531-.531Z" fill="#a0e9cc"/><path d="M28.137,29.22c-.196,0-.36.111-.452.269-.004,0-.006-.004-.01-.004h-3.255c-.147,0-.265.119-.265.265s.119.265.265.265h3.255s.006-.004.01-.004c.092.158.256.269.452.269.292,0,.531-.238.531-.531s-.239-.531-.531-.531Z" fill="#a0e9cc"/></svg>