<?xml version="1.0" encoding="UTF-8"?><svg id="a" xmlns="http://www.w3.org/2000/svg" viewBox="0 0 52.6 58.851"><path id="b" d="M26.3,50.542c-.734,0-1.445-.191-2.056-.555l-14.494-8.365c-1.264-.726-2.05-2.086-2.05-3.55v-16.74c0-1.464.786-2.824,2.051-3.55l14.499-8.369c.62-.361,1.329-.553,2.05-.553s1.43.191,2.053.554l.374.223,2.351,1.362c.072-.011.146-.017.223-.017.882,0,1.6.717,1.6,1.6s-.718,1.6-1.6,1.6c-.834,0-1.521-.642-1.594-1.458l-2.147-1.227-.095-.083-.202-.096c-.301-.169-.631-.257-.962-.257s-.662.088-.956.253l-14.494,8.367c-.585.343-.95.975-.95,1.65v16.74c0,.675.365,1.309.953,1.652l14.497,8.368c.285.162.614.249.95.249s.666-.087.953-.251l14.497-8.368c.586-.342.951-.975.951-1.65v-11.87c0-.617.482-1.1,1.1-1.1s1.1.483,1.1,1.1v11.87c0,1.464-.786,2.824-2.051,3.55l-14.498,8.369c-.606.359-1.316.551-2.051.551Z" fill="#d3c5ed"/><path id="c" d="M28.425,58.791c-.062.034-.21.06-.361.06-.47,0-.903-.252-1.131-.657-.113-.224-.163-.424-.163-.642,0-.466.251-.897.656-1.126l21.724-12.546c.524-.307.851-.873.851-1.478v-25.4c0-.604-.327-1.171-.854-1.479L27.15,2.825c-.258-.146-.553-.223-.85-.223s-.594.079-.857.227L3.45,15.525c-.523.306-.85.873-.85,1.477v25.4c0,.604.327,1.172.854,1.479l7.54,4.346c.101-.017.202-.025.307-.025.903,0,1.668.677,1.781,1.575.019.084.019.176.019.225,0,.562-.274,1.106-.735,1.456-.333.231-.688.344-1.065.344-.846,0-1.576-.596-1.757-1.408l-7.393-4.269c-1.326-.761-2.15-2.188-2.15-3.723v-25.4c0-1.535.824-2.962,2.151-3.724L24.15.579c.649-.379,1.393-.579,2.15-.579s1.501.201,2.153.581l21.997,12.699c1.325.761,2.149,2.188,2.149,3.723v25.4c0,1.535-.824,2.962-2.151,3.724l-18.067,10.425" fill="#d3c5ed"/><path d="M16.138,40.402c-.357,0-.66-.3-.66-.654v-13.068c0-.354.302-.654.66-.654h7.069c.357,0,.66.3.66.654v13.104c-.057.351-.358.619-.66.619h-7.069ZM22.547,39.128v-1.347h-2.45c-.358,0-.66-.3-.66-.654s.302-.654.66-.654h2.45v-3.933h-2.45c-.358,0-.66-.3-.66-.654s.302-.654.66-.654h2.45v-3.932h-5.785v1.312h2.581c.357,0,.66.3.66.655s-.302.654-.66.654h-2.581v3.967h2.483c.354,0,.665.29.665.62,0,.354-.304.654-.665.654h-2.483v3.967h5.785Z" fill="#d3c5ed"/><path d="M16.138,25.133c-.357,0-.66-.3-.66-.654v-4.787c0-.354.302-.654.66-.654h7.069c.357,0,.66.3.66.654v4.822c-.057.351-.357.62-.66.62h-7.069ZM22.547,23.859v-3.548h-5.785v3.548h5.785Z" fill="#d3c5ed"/><path d="M21.44,21.858h-3.535c-.247,0-.459-.21-.459-.454s.212-.454.459-.454h3.535c.247,0,.459.21.459.454s-.247.454-.459.454Z" fill="#d3c5ed"/><path d="M21.44,23.185h-3.535c-.247,0-.459-.21-.459-.454s.212-.454.459-.454h3.535c.247,0,.459.21.459.454s-.247.454-.459.454Z" fill="#d3c5ed"/><path d="M25.398,40.402c-.357,0-.66-.3-.66-.654v-8.735c0-.355.302-.655.66-.655h6.186c.357,0,.66.3.66.655v8.735c0,.354-.303.654-.66.654h-6.186ZM30.96,39.128v-7.461h-4.902v7.461h4.902Z" fill="#d3c5ed"/><path d="M33.811,40.402c-.357,0-.659-.3-.659-.654v-8.735c0-.355.302-.655.659-.655h2.651c.357,0,.66.3.66.655v8.735c-.054.374-.349.654-.66.654h-2.651ZM35.802,39.128v-7.461h-1.366v7.461h1.366Z" fill="#d3c5ed"/><rect x="26.965" y="32.14" width="1.284" height="1.274" fill="#d3c5ed"/><rect x="28.732" y="32.14" width="1.284" height="1.274" fill="#d3c5ed"/><rect x="26.965" y="33.887" width="1.284" height="1.274" fill="#d3c5ed"/><rect x="28.732" y="33.887" width="1.284" height="1.274" fill="#d3c5ed"/><rect x="26.965" y="35.634" width="1.284" height="1.274" fill="#d3c5ed"/><rect x="28.732" y="35.634" width="1.284" height="1.274" fill="#d3c5ed"/><rect x="26.965" y="37.381" width="1.284" height="1.274" fill="#d3c5ed"/><rect x="28.732" y="37.381" width="1.284" height="1.274" fill="#d3c5ed"/><path d="M25.398,29.92c-.357,0-.66-.3-.66-.654v-2.621c0-.355.302-.655.66-.655h11.063c.357,0,.66.3.66.655v2.621c-.054.374-.349.654-.66.654h-11.063ZM35.802,28.646v-1.347h-9.744v1.347h9.744Z" fill="#d3c5ed"/><path d="M28.049,25.133c-.357,0-.659-.3-.659-.654v-4.822c0-.354.302-.654.659-.654h8.413c.357,0,.66.3.66.654v4.822c-.054.374-.349.654-.66.654h-8.413ZM35.802,23.859v-.927h-7.093v.927h7.093ZM35.802,21.623v-1.312h-7.093v1.312h7.093Z" fill="#d3c5ed"/></svg>