<?xml version="1.0" encoding="UTF-8"?><svg id="a" xmlns="http://www.w3.org/2000/svg" viewBox="0 0 52.6 58.851"><path id="b" d="M26.3,50.542c-.734,0-1.445-.191-2.056-.555l-14.494-8.365c-1.264-.726-2.05-2.086-2.05-3.55v-16.74c0-1.464.786-2.824,2.051-3.55l14.499-8.369c.62-.361,1.329-.553,2.05-.553s1.43.191,2.053.554l.374.223,2.351,1.362c.072-.011.146-.017.223-.017.882,0,1.6.717,1.6,1.6s-.718,1.6-1.6,1.6c-.834,0-1.521-.642-1.594-1.458l-2.147-1.227-.095-.083-.202-.096c-.301-.169-.631-.257-.962-.257s-.662.088-.956.253l-14.494,8.367c-.585.343-.95.975-.95,1.65v16.74c0,.675.365,1.309.953,1.652l14.497,8.368c.285.162.614.249.95.249s.666-.087.953-.251l14.497-8.368c.586-.342.951-.975.951-1.65v-11.87c0-.617.482-1.1,1.1-1.1s1.1.483,1.1,1.1v11.87c0,1.464-.786,2.824-2.051,3.55l-14.498,8.369c-.606.359-1.316.551-2.051.551Z" fill="#7f4fc9"/><path id="c" d="M28.425,58.791c-.062.034-.21.06-.361.06-.47,0-.903-.252-1.131-.657-.113-.224-.163-.424-.163-.642,0-.466.251-.897.656-1.126l21.724-12.546c.524-.307.851-.873.851-1.478v-25.4c0-.604-.327-1.171-.854-1.479L27.15,2.825c-.258-.146-.553-.223-.85-.223s-.594.079-.857.227L3.45,15.525c-.523.306-.85.873-.85,1.477v25.4c0,.604.327,1.172.854,1.479l7.54,4.346c.101-.017.202-.025.307-.025.903,0,1.668.677,1.781,1.575.019.084.019.176.019.225,0,.562-.274,1.106-.735,1.456-.333.231-.688.344-1.065.344-.846,0-1.576-.596-1.757-1.408l-7.393-4.269c-1.326-.761-2.15-2.188-2.15-3.723v-25.4c0-1.535.824-2.962,2.151-3.724L24.15.579c.649-.379,1.393-.579,2.15-.579s1.501.201,2.153.581l21.997,12.699c1.325.761,2.149,2.188,2.149,3.723v25.4c0,1.535-.824,2.962-2.151,3.724l-18.067,10.425" fill="#7f4fc9"/><path d="M27.417,41.346c-.392,0-.77-.146-1.062-.409-.34-.306-.536-.743-.536-1.199v-4.425c0-.265.216-.48.48-.48,2.828,0,5.129-2.301,5.129-5.13s-2.301-5.129-5.129-5.129c-.265,0-.48-.216-.48-.48v-4.425c0-.456.195-.894.536-1.2.293-.264.669-.41,1.059-.41.057,0,.113.003.169.009.368.038.727.096,1.063.17.219.047.378.245.378.469v1.944c.608.18,1.189.424,1.732.729l1.396-1.397c.092-.091.212-.141.34-.141.097,0,.189.028.27.083,1.311.89,2.425,2.005,3.313,3.315.13.189.106.445-.057.609l-1.397,1.397c.305.544.549,1.125.729,1.732h1.944c.226,0,.423.16.469.379.156.714.236,1.503.236,2.345s-.08,1.631-.236,2.347c-.046.218-.243.378-.469.378h-1.944c-.18.608-.424,1.189-.728,1.732l1.396,1.396c.163.165.187.422.057.611-.889,1.309-2.004,2.424-3.313,3.312-.081.055-.175.084-.271.084-.129,0-.25-.051-.34-.144l-1.396-1.395c-.541.303-1.122.548-1.732.729v1.944c0,.226-.16.423-.379.469-.337.074-.695.134-1.064.171-.056.005-.11.008-.164.008ZM26.78,39.737c0,.184.079.36.218.485.119.107.261.163.413.163.253-.023.46-.052.652-.084v-1.915c0-.221.149-.412.363-.466.786-.197,1.489-.493,2.15-.907.077-.047.165-.072.255-.072.128,0,.249.05.34.14l1.375,1.376c.963-.702,1.805-1.544,2.507-2.507l-1.375-1.375c-.16-.16-.188-.405-.066-.596.412-.662.709-1.366.905-2.149.054-.214.246-.364.467-.364h1.914c.094-.546.141-1.139.141-1.764s-.047-1.217-.141-1.763h-1.914c-.221,0-.413-.15-.467-.364-.196-.784-.493-1.488-.906-2.151-.12-.19-.093-.435.068-.594l1.374-1.375c-.702-.963-1.545-1.805-2.507-2.506l-1.374,1.375c-.092.09-.212.14-.34.14-.09,0-.178-.025-.254-.072-.663-.415-1.367-.711-2.152-.907-.214-.053-.363-.245-.363-.466v-1.915c-.189-.032-.384-.059-.581-.08l-.072-.004c-.151,0-.293.056-.412.164-.139.125-.218.301-.218.485v3.963c3.161.246,5.61,2.877,5.61,6.072s-2.449,5.826-5.61,6.072v3.963Z" fill="#7f4fc9"/><path d="M26.861,27.739h-1.122c-.074,0-.146.03-.198.082l-1.122,1.122c-.053.053-.082.124-.082.198v2.244c0,.155.125.28.28.28s.28-.125.28-.28v-.842h1.683v.842c0,.155.125.28.281.28s.28-.125.28-.28v-3.366c0-.155-.125-.28-.28-.28ZM26.58,29.983h-1.683v-.725l.958-.958h.725v1.683Z" fill="#7f4fc9"/><path d="M28.263,28.019v3.366c0,.155-.126.281-.28.281s-.28-.125-.28-.281v-3.366c0-.155.126-.281.28-.281s.28.125.28.281Z" fill="#7f4fc9"/><path d="M22.616,41.402c-.17,0-.337-.027-.498-.079l-1.945-.665c-.65-.227-1.086-.842-1.086-1.531v-.751c0-.252-.138-.484-.351-.592l-1.01-.505c-.536-.268-.883-.837-.883-1.45v-2.009c0-.249-.136-.477-.355-.594l-1.005-.503c-.545-.272-.883-.828-.883-1.45v-3.142c0-.623.338-1.179.883-1.451l1.003-.501c.219-.117.357-.346.357-.595v-2.008c0-.613.347-1.183.883-1.451l1.009-.504c.213-.107.352-.339.352-.592v-.751c0-.688.437-1.304,1.086-1.532l1.945-.664c.161-.053.328-.08.498-.08.43,0,.85.174,1.152.479l1.43,1.453c.297.314.46.715.46,1.129v4.279c.211-.031.426-.047.641-.047,2.43,0,4.407,1.978,4.407,4.408s-1.978,4.408-4.407,4.408c-.215,0-.43-.016-.641-.047v4.278c0,.416-.164.817-.462,1.132l-1.428,1.451c-.305.304-.724.478-1.153.478ZM19.975,37.891c.049.157.074.319.074.485v.751c0,.281.176.531.438.623l1.938.661c.061.021.126.031.193.031.174,0,.345-.071.469-.194l1.418-1.442c.123-.13.191-.296.191-.464v-4.534c-1.684-.659-2.805-2.291-2.805-4.105s1.122-3.446,2.805-4.105v-4.535c0-.168-.067-.333-.19-.463l-1.42-1.443c-.125-.124-.296-.195-.468-.195-.066,0-.13.011-.19.031l-1.941.662c-.262.092-.438.342-.438.623v.751c0,.165-.025.327-.073.484l.688.341c.302-.311.712-.487,1.148-.487.883,0,1.603.719,1.603,1.603s-.719,1.603-1.603,1.603-1.603-.719-1.603-1.603c0-.085.007-.171.022-.258l-.805-.398c-.082.064-.169.12-.261.166l-1.011.504c-.213.107-.351.339-.351.592v2.008c0,.144-.019.286-.057.425l.672.333c.302-.311.711-.487,1.148-.487.884,0,1.603.719,1.603,1.603s-.719,1.603-1.603,1.603-1.603-.719-1.603-1.603c0-.085.007-.171.022-.258l-.757-.375c-.093.08-.195.149-.304.208l-1.014.506c-.216.109-.351.335-.351.592v3.142c0,.257.134.482.351.591l1.017.509c.11.058.211.127.303.205l.756-.375c-.015-.086-.022-.172-.022-.257,0-.884.719-1.603,1.603-1.603s1.603.719,1.603,1.603-.719,1.603-1.603,1.603c-.437,0-.847-.176-1.148-.486l-.672.333c.038.138.057.28.057.425v2.009c0,.253.137.484.351.591l1.011.505c.092.046.179.102.26.164l.805-.398c-.015-.085-.022-.171-.022-.256,0-.884.719-1.603,1.603-1.603s1.603.719,1.603,1.603-.719,1.603-1.603,1.603c-.437,0-.847-.176-1.148-.487l-.688.341ZM21.812,35.793c-.354,0-.641.288-.641.642s.288.642.641.642.641-.288.641-.642-.288-.642-.641-.642ZM26.3,26.256c-1.9,0-3.446,1.546-3.446,3.446s1.546,3.446,3.446,3.446,3.446-1.546,3.446-3.446-1.546-3.446-3.446-3.446ZM19.568,31.305c-.354,0-.641.288-.641.642s.288.642.641.642.642-.288.642-.642-.288-.642-.642-.642ZM19.568,26.817c-.354,0-.641.288-.641.642s.288.641.641.641.642-.288.642-.641-.288-.642-.642-.642ZM21.812,22.329c-.354,0-.641.288-.641.642s.288.641.641.641.641-.288.641-.641-.288-.642-.641-.642Z" fill="#7f4fc9"/></svg>