<?xml version="1.0" encoding="UTF-8"?>
<svg id="a" xmlns="http://www.w3.org/2000/svg" version="1.1" viewBox="0 0 52.6 58.85">
  <!-- Generator: Adobe Illustrator 29.8.3, SVG Export Plug-In . SVG Version: 2.1.1 Build 3)  -->
  <path id="b" d="M26.3,50.54c-.73,0-1.44-.19-2.06-.56l-14.49-8.36c-1.26-.73-2.05-2.09-2.05-3.55v-16.74c0-1.46.79-2.82,2.05-3.55l14.5-8.37c.62-.36,1.33-.55,2.05-.55s1.43.19,2.05.55l.37.22,2.35,1.36c.07-.01.15-.02.22-.02.88,0,1.6.72,1.6,1.6s-.72,1.6-1.6,1.6c-.83,0-1.52-.64-1.59-1.46l-2.15-1.23-.09-.08-.2-.1c-.3-.17-.63-.26-.96-.26s-.66.09-.96.25l-14.49,8.37c-.59.34-.95.98-.95,1.65v16.74c0,.67.36,1.31.95,1.65l14.5,8.37c.28.16.61.25.95.25s.67-.09.95-.25l14.5-8.37c.59-.34.95-.97.95-1.65v-11.87c0-.62.48-1.1,1.1-1.1s1.1.48,1.1,1.1v11.87c0,1.46-.79,2.82-2.05,3.55l-14.5,8.37c-.61.36-1.32.55-2.05.55h0Z" fill="#66b3ff"/>
  <path id="c" d="M28.42,58.79c-.06.03-.21.06-.36.06-.47,0-.9-.25-1.13-.66-.11-.22-.16-.42-.16-.64,0-.47.25-.9.66-1.13l21.72-12.55c.52-.31.85-.87.85-1.48v-25.4c0-.6-.33-1.17-.85-1.48L27.15,2.83c-.26-.15-.55-.22-.85-.22s-.59.08-.86.23L3.45,15.52c-.52.31-.85.87-.85,1.48v25.4c0,.6.33,1.17.85,1.48l7.54,4.35c.1-.02.2-.03.31-.03.9,0,1.67.68,1.78,1.58.02.08.02.18.02.22,0,.56-.27,1.11-.73,1.46-.33.23-.69.34-1.06.34-.85,0-1.58-.6-1.76-1.41l-7.39-4.27C.83,45.36,0,43.94,0,42.4v-25.4C0,15.47.83,14.04,2.15,13.28L24.15.58c.65-.38,1.39-.58,2.15-.58s1.5.2,2.15.58l22,12.7c1.33.76,2.15,2.19,2.15,3.72v25.4c0,1.53-.82,2.96-2.15,3.72l-18.07,10.42" fill="#66b3ff"/>
  <g id="d">
    <g id="e">
      <path d="M17.25,25.03c-.35,0-.65-.3-.65-.65v-3.72c0-.36.29-.65.65-.65h3.72c.35,0,.65.3.65.65s-.3.65-.65.65h-3.08v3.07c0,.17-.06.34-.18.46-.12.12-.29.19-.46.19h0Z" fill="#66b3ff" fill-rule="evenodd"/>
      <path d="M17.25,39.4c-.35,0-.65-.3-.65-.65v-3.72c0-.36.29-.65.65-.65s.65.3.65.65v3.08h3.08c.35,0,.65.3.65.65,0,.36-.3.65-.66.65h-3.72,0Z" fill="#66b3ff" fill-rule="evenodd"/>
      <path d="M35.34,25.03c-.35,0-.65-.3-.65-.65v-3.07h-3.08c-.35,0-.65-.3-.65-.65s.3-.65.65-.65h3.72c.35,0,.65.3.65.65v3.72c0,.17-.06.34-.18.46-.12.12-.29.19-.46.19h0Z" fill="#66b3ff" fill-rule="evenodd"/>
      <path d="M31.62,39.4c-.35,0-.65-.3-.65-.65s.3-.65.65-.65h2.49c.33,0,.59-.27.59-.59v-2.49c0-.35.3-.65.65-.65s.65.3.65.65v3.73c0,.36-.3.65-.66.65h-3.72,0Z" fill="#66b3ff" fill-rule="evenodd"/>
      <path d="M18.58,28.85c-.2,0-.37-.17-.37-.37s.17-.37.37-.37h15.44c.2,0,.37.17.37.37s-.17.37-.37.37h-15.44Z" fill="#66b3ff" fill-rule="evenodd"/>
      <path d="M18.58,30.1c-.2,0-.37-.17-.37-.37v-2.51c0-.2.17-.37.37-.37s.37.17.37.37v2.51c0,.2-.17.37-.37.37Z" fill="#66b3ff" fill-rule="evenodd"/>
      <path d="M34.01,30.1c-.2,0-.37-.17-.37-.37v-2.51c0-.2.17-.37.37-.37s.37.17.37.37v2.51c0,.2-.17.37-.37.37Z" fill="#66b3ff" fill-rule="evenodd"/>
      <path d="M24.91,36.94c-.09,0-.18-.04-.25-.11-.89-.85-1.38-2.02-1.38-3.28v-6.22c0-1.09.49-1.98,1.39-2.49.48-.28,1.05-.43,1.64-.43s1.16.15,1.64.43c.9.51,1.39,1.4,1.39,2.49v4.1c0,.8.4,1.49,1.09,1.89l.7.41c.09.05.15.13.17.23.02.09,0,.19-.04.27-.07.11-.19.18-.32.18-.07,0-.13-.02-.19-.06l-.7-.4c-.93-.54-1.46-1.46-1.46-2.53v-4.1c0-.82-.36-1.48-1.02-1.85-.37-.22-.81-.33-1.27-.33s-.9.11-1.28.33c-.66.38-1.02,1.04-1.02,1.85v6.22c0,1.05.41,2.03,1.16,2.75.15.15.15.37.01.52-.08.08-.18.13-.27.13h0ZM27.12,36.82c-.05,0-.13,0-.19-.06l-.71-.42c-1.01-.58-1.62-1.63-1.62-2.8v-6.22c0-1.05.85-1.6,1.69-1.6s1.69.55,1.69,1.6v5.64c0,.32.16.59.43.74l1.55.9c.18.11.24.33.13.5-.07.11-.19.18-.31.18-.07,0-.13-.02-.19-.05l-1.55-.9c-.51-.3-.8-.8-.8-1.38v-5.64c0-.68-.61-.87-.97-.87s-.96.18-.96.87v6.22c0,.9.47,1.71,1.25,2.16l.73.42c.09.05.15.14.17.24.02.09,0,.19-.05.27-.02.09-.15.18-.3.18h0ZM23.1,36.77c-.13,0-.25-.06-.32-.18-.55-.91-.84-1.96-.84-3.04v-6.12c0-1.16.45-2.26,1.28-3.08.82-.82,1.92-1.28,3.08-1.28,2.4,0,4.35,1.96,4.35,4.36v2.4c0,1.33.66,2.47,1.81,3.14.09.05.15.14.17.24.02.09,0,.19-.05.27-.06.1-.18.18-.31.18-.07,0-.13-.02-.19-.05-1.38-.79-2.17-2.17-2.17-3.77v-2.4c0-1.99-1.62-3.62-3.62-3.62-.96,0-1.87.38-2.56,1.06-.68.68-1.06,1.59-1.06,2.56v6.12c0,.94.25,1.87.73,2.67.05.09.07.19.04.29-.03.1-.09.17-.17.22-.01.02-.09.05-.17.05h0ZM21.36,36.11c-.2,0-.33-.1-.38-.25-.25-.75-.37-1.52-.37-2.3v-6.42c0-1.66.62-3.06,1.8-4.04,1.03-.86,2.41-1.34,3.89-1.34s2.86.48,3.89,1.34c1.17.99,1.8,2.38,1.8,4.04v1.35c0,1.44.6,2.72,1.71,3.61.16.13.19.36.06.52-.08.09-.18.14-.29.14-.08,0-.16-.03-.23-.08-1.28-1.02-1.99-2.51-1.99-4.18v-1.35c0-3.19-2.56-4.64-4.95-4.64s-4.95,1.45-4.95,4.64v6.42c0,.72.11,1.42.34,2.07.03.1.02.21-.03.29-.05.08-.12.15-.22.17h-.04s-.03,0-.03,0h0ZM27.98,35.77c-.05,0-.13,0-.19-.06l-.9-.52c-.6-.35-.95-.95-.95-1.65v-6.12c0-.2.17-.37.37-.37s.37.17.37.37v6.12c0,.42.21.79.58,1.01l.92.53c.09.05.15.13.17.23.02.09,0,.19-.04.27-.07.11-.19.18-.32.18h0Z" fill="#66b3ff" fill-rule="evenodd"/>
    </g>
  </g>
  <metadata><?xpacket begin="﻿" id="W5M0MpCehiHzreSzNTczkc9d"?>
<x:xmpmeta xmlns:x="adobe:ns:meta/" x:xmptk="Adobe XMP Core 9.1-c003 1.000000, 0000/00/00-00:00:00        ">
   <rdf:RDF xmlns:rdf="http://www.w3.org/1999/02/22-rdf-syntax-ns#">
      <rdf:Description rdf:about=""
            xmlns:xmp="http://ns.adobe.com/xap/1.0/"
            xmlns:xmpGImg="http://ns.adobe.com/xap/1.0/g/img/"
            xmlns:xmpTPg="http://ns.adobe.com/xap/1.0/t/pg/"
            xmlns:stDim="http://ns.adobe.com/xap/1.0/sType/Dimensions#"
            xmlns:xmpG="http://ns.adobe.com/xap/1.0/g/"
            xmlns:dc="http://purl.org/dc/elements/1.1/">
         <xmp:CreatorTool>Adobe Illustrator 29.8 (Windows)</xmp:CreatorTool>
         <xmp:CreateDate>2025-11-23T15:47:03+08:00</xmp:CreateDate>
         <xmp:Thumbnails>
            <rdf:Alt>
               <rdf:li rdf:parseType="Resource">
                  <xmpGImg:width>232</xmpGImg:width>
                  <xmpGImg:height>256</xmpGImg:height>
                  <xmpGImg:format>JPEG</xmpGImg:format>
                  <xmpGImg:image>/9j/4AAQSkZJRgABAgEAAAAAAAD/7QAsUGhvdG9zaG9wIDMuMAA4QklNA+0AAAAAABAAAAAAAAEA&#xA;AQAAAAAAAQAB/+4ADkFkb2JlAGTAAAAAAf/bAIQABgQEBAUEBgUFBgkGBQYJCwgGBggLDAoKCwoK&#xA;DBAMDAwMDAwQDA4PEA8ODBMTFBQTExwbGxscHx8fHx8fHx8fHwEHBwcNDA0YEBAYGhURFRofHx8f&#xA;Hx8fHx8fHx8fHx8fHx8fHx8fHx8fHx8fHx8fHx8fHx8fHx8fHx8fHx8fHx8f/8AAEQgBAADoAwER&#xA;AAIRAQMRAf/EAaIAAAAHAQEBAQEAAAAAAAAAAAQFAwIGAQAHCAkKCwEAAgIDAQEBAQEAAAAAAAAA&#xA;AQACAwQFBgcICQoLEAACAQMDAgQCBgcDBAIGAnMBAgMRBAAFIRIxQVEGE2EicYEUMpGhBxWxQiPB&#xA;UtHhMxZi8CRygvElQzRTkqKyY3PCNUQnk6OzNhdUZHTD0uIIJoMJChgZhJRFRqS0VtNVKBry4/PE&#xA;1OT0ZXWFlaW1xdXl9WZ2hpamtsbW5vY3R1dnd4eXp7fH1+f3OEhYaHiImKi4yNjo+Ck5SVlpeYmZ&#xA;qbnJ2en5KjpKWmp6ipqqusra6voRAAICAQIDBQUEBQYECAMDbQEAAhEDBCESMUEFURNhIgZxgZEy&#xA;obHwFMHR4SNCFVJicvEzJDRDghaSUyWiY7LCB3PSNeJEgxdUkwgJChgZJjZFGidkdFU38qOzwygp&#xA;0+PzhJSktMTU5PRldYWVpbXF1eX1RlZmdoaWprbG1ub2R1dnd4eXp7fH1+f3OEhYaHiImKi4yNjo&#xA;+DlJWWl5iZmpucnZ6fkqOkpaanqKmqq6ytrq+v/aAAwDAQACEQMRAD8A9U4q7FXYq7FXYq7FXYq7&#xA;FXYq7FXYq4kAVOwHU4qxbXvP2nWPKGypeXI2JB/dKfdh9r6PvzaaXsuc95emP2ut1HaUIbR9R+xg&#xA;Op+YdY1Jy11cuyHpEp4xj/YjbN9h0uPGPSP1uly6nJk+ooCOSSNg8bFGHRlJB+8ZeQDzaQSOTJNE&#xA;8+atYMI7tje23cSH94P9V/65rtT2ZjnvH0y+xz9P2jOG0vUHoOj6/perRc7OUFwKvC20i/Nf4jOf&#xA;1GlniPqHx6O8wamGUekpjmO3uxV2KuxV2KuxV2KuxV2KuxV2KuxV2KuxV2KuxV2KuxV2KuxV2Kux&#xA;VJ9b81aTpClZpPUuf2baOhf/AGXZfpzM02hyZeQod7i6jWQxc+fc8713zhq2rFo2f6vaHpbxkgEf&#xA;5bdW/V7Z0Om0GPFvzl3ui1Gtnl25R7kjzNcNPdC8natq3GQL9XtD/wAfEgO4/wAherfq98wdT2hj&#xA;xbc5dzmafQzyb8o96f3n5Y0gJs73lOB9mVaK30qTT7jmBj7Z39UdvJzZ9k7emW7DNQ02+0+cwXkL&#xA;QyDoG6EeKkbEfLNzizRyC4mw6rJilA1IUowzTQSrLC7Ryoao6EqwPsRk5REhR3DCMiDY5s10H8xp&#xA;Y+MGrr6idBdIPiH+uo6/Mfjml1XZIO+P5O30/ahG2T5s6s720vIFntZVmhbo6Gv0HwPtmjyY5QNS&#xA;FF3EMkZi4mwrZBm7FXYq7FXYq7FXYq7FXYq7FXYq7FXYq7FXYq7FXYq7FUJqWq6fpsBnvZliT9kH&#xA;7THwVRuctw4J5DURbVlzRxi5GmAa9+YV9d8oNNBtLc7GU/3rD5j7P0ffm/0vZUYbz9R+z9rpdR2n&#xA;KW0PSPtYkzMzFmJZialjuSc2wFOrJR2k6HqeqzenZwlwDR5Tsi/6zf5nKM+phiFyLdh088hqIeg6&#xA;D5C03T+M15S8uhv8Q/dqf8lT1+Zzn9V2pPJtH0x+13mn7OhDeXqP2MoApsM1jsXYqh77T7K+gMF3&#xA;Cs0R/ZYdD4g9QfcZZjyygbiaLDJjjMVIWGB69+XVxDyn0ljPH1Ns5HqD/VPRv1/PN7pe1gdsmx73&#xA;S6jswjeG/kw2SKSKRo5UKSKaMjAgg+BBzcAgiw6ogg0UTpurahps/rWUzRP+0BurAdmU7HK82CGQ&#xA;VIW2Ys0sZuJpn+g/mDY3fGDUgLS4Owl/3Ux+Z+z9O3vmg1XZUobw9Q+39rutP2lGW0/SfsZarKyh&#xA;lIZWFQRuCDmpIp2gLeKuxV2KuxV2KuxV2KuxV2KuxV2KuxV2KuxVZNNDBE0szrHEgqzuQAB7k4Yx&#xA;MjQ3KJSAFlhevfmNFHyg0hPUfobpx8I/1F7/ADP45utL2STvk28nU6jtQDbH82CXl7d3s7T3UrTT&#xA;N1dzX6B4D2zeY8cYCoig6aeSUzcjZatbS5uplgtommlb7KIKnDOcYi5GgiEDI0BZZxoP5cqOM+sN&#xA;U9RaRnb/AGbj9S/fmj1Xa/TH83cafsvrk+TN7e3gt4VhgjWKJNlRAFA+gZpZTMjZNl28YiIobBUy&#xA;LJ2KuxV2KuxVLNZ8uaVq8dLuL96BRJ0+GRfp7/I5k6fV5MR9J27ujj59LDKPUN+955rvknVdM5Sx&#xA;D63aDf1Yx8Sj/LTqPmNs6HS9pY8ux9MnRajQTx7j1RY7mwcFOND81atpDBYZPVtq/FbSbp/se6n5&#xA;ZianQ48vMVLvcrT6yeLly7nomheb9J1YLGr+hdnrbSHcn/IPRv1+2c9qdBkxb8497vdPrYZduUu5&#xA;PMwXMdirsVdirsVdirsVdirsVdirsVdirGte89aXpvKG3IvLsbcEPwKf8p/4D8M2Wl7Mnk3Ppi6/&#xA;UdoQx7D1See6x5g1TVped5KSgNUhX4Y1+S/xO+dBp9LDEPSPj1dHn1M8p9RS4AkgAVJ6DMhoZXoP&#xA;5f6je8Zr+tnbHfiR+9Yeyn7P0/dmq1XakIbQ9Uvsdlp+zZz3l6R9r0DS9G03S4fSsoRGD9p+rt/r&#xA;MdzmgzaieU3I27vDghjFRCNyludirsVQ95qNhZKGu7iOAHp6jBa/IHrlmPFOf0glhPLGH1EBBx+a&#xA;fLsjhF1CGp6cm4j7zQZcdFmH8JaRq8R/iCZo6OodGDKwqrA1BHscxiKcgG28CXYq7FWOa95H0vUu&#xA;UsAFpdnf1EHwMf8AKT+IzY6XtLJj2Pqi4Go7Phk3Hpk881jy9qmkScbuKkZNEnT4o2+TfwO+dDp9&#xA;Xjyj0n4dXR59NPEfUEtBINRsR0OZDjsq0Hz9qNjxhvq3lqNgSf3qj2Y/a+n781eq7LhPePpl9jst&#xA;P2lOG0vUPteg6VrWm6pD6tlMJKfbTo6/6ynfNBn088RqQd3hzwyC4lG5Q3OxV2KuxV2KuxV2KuxV&#xA;K9a8yaVpCf6VLWYiqW6byH6Ow9zmVp9Hkyn0jbvcbPqoYh6jv3PPNe866rqnKKNvqtmdvRjPxMP8&#xA;tup+XTOg0vZ2PFufVJ0eo188mw2ix7Ng4Kc6H5U1bVyHiT0rbvcyVC/7Hu30Zh6nXY8XPeXc5en0&#xA;c8vLYd70TQvKOk6QA6J690OtzIKsP9UdF/XnPanX5Mux2j3O90+ihi3G8u9O8wnLdirsVUrq6trW&#xA;Bp7mVYYU+07mgycISkaiLLGcxEWTQYPr35jMeUGjrQdDdyDf/YIf1t92bvS9kdcnydPqO1OmP5sI&#xA;uLm4uZmmuJGllbdnclifpObqEBEUBQdRKRkbJsqeSYpno3mPVdIkray1iJq9u/xRt9HY+4zG1Gkx&#xA;5R6hv39XIwaqeI+k7dz0TQvO2laoFikYWl2f91SH4WP+Q/Q/LrnPans7Ji3Hqi73T6+GTY+mTIFZ&#xA;WFVIIPQjcZryHOBbxV2KrZYYpo2ilRZI3FHRgCpHuDhjIg2OaJRBFFhevfl1DLyn0lhFJ1Ns5+A/&#xA;6rdV+R/DNzpe1iNsm/m6nUdlg7w28mCXljeWU5gu4WhlXqrCn0jxGb3HljMXE2HTZMcoGpCittrq&#xA;4tZlnt5GimT7LoSCPuwzgJCiLCITMTYNFm+g/mMPhg1hPYXcY/4mg/Wv3ZpNV2R1x/J3Gn7U6ZPm&#xA;zi3ube5hWa3kWWJ91dCCD92aScDE0RRdvGYkLBsKmRZOxV2KuxVD32o2VhAZ7yZYYh3Y7k+AHUn2&#xA;GWYsUshqIsteTLGAuRoMC178xLmflBpSm3i6G4anqEf5I6L+v5ZvdL2TGO+Tc93R02o7TJ2hsO9h&#xA;0kkkjtJIxeRjVnYkknxJObgAAUHVEkmyitM0jUdTn9GyhaVv2mGyqPFmOwyvNnhjFyNNmLDPIaiL&#xA;Z/oP5fWFnxm1Ei7uBv6dP3Kn5H7X0/dmg1Xas57Q9I+13en7NjHefqP2MtACgKooBsAOgGal2bsV&#xA;diriQASTQDqcVYpr3n/TrHlDYAXlyNuQP7pT7sPtfR9+bXS9lznvP0x+11uo7ShDaPqP2PP9U1nU&#xA;tUm9W9maQj7KdEX/AFVGwzf4dPDEKiKdHmzzyG5FvStE1PVZvTsoS4B+OQ7Iv+sx2wZ9TDELkU4d&#xA;PPIaiHoOheQdMseM17S8uhvRh+6U+yn7X+y+7NBqe1Jz2j6Y/a7zT9mwhvL1H7E+u9I0y7gMFxax&#xA;yR0oAVAI/wBUjcfRmDjzzgbBNuZPDCQogMF138urmDlPpTG4i6m3egkH+qejfr+ebvS9rRltk2Pf&#xA;0dPqOzCN4bjuYdJG8btHIpR0JVkYUII2IIObgEEWHVEEGinPlLWbvT9Yt0jc/V7iRY5oq/CQ541p&#xA;4iuYev08cmM3zA2crRZ5QyCuRL13OSeodirsVdiqF1HS7DUYDBeQrKnav2lPirDcZbhzzxm4mmvL&#xA;hjkFSFsA178vb215T6YTdQDcwn+9Ue3Z/o39s32l7VjLafpP2fsdJqOzJR3huPtYiysjFXBVlNGU&#xA;7EEeObcG3VkUjdK1vUtKm9WymKV+3Gd0b/WU7ZRn00MoqQbsOonjNxL0HQfP2m3/ABhvaWd0dqsf&#xA;3TH2Y/Z+R+/NBquy5w3j6o/a7zT9owntL0n7GUg13Gat2LsVY/5s81RaLAscQEl9MKxxnoq9ObfT&#xA;0HfM/Q6E5jZ2iHB1msGIUPqLzC/1G+1Ccz3kzTSHoWOwHgo6AfLOnxYY4xURQeeyZZTNyNqMEE08&#xA;qwwRtLK5oiICzE+wGTlIRFk0GEYmRoc2baD+XMj8Z9XbgvUWsZ+I/wCuw6fIffml1Xa4G2P5u30/&#xA;ZZO+T5M5tLO1s4FgtYlhhXoiCg+fzzRzySmbkbLuYQjEUBQVsgydirsVSbXPNek6QpWV/Vuu1tHu&#xA;3+y7L9OZmm0OTLy2j3uJqNZDFz3Pc8713zdq2rko7+hanpbxkgH/AFj1bOh02gx4txvLvdFqNbPL&#xA;sdo9yU21rc3UywW0bSzPsqIKk5lzmIi5Gg40IGRoCyzjQfy5A4z6w1T1FpGf+JuP1L9+aTVdr9Mf&#xA;zdxp+y+uT5M3t7a3toVht41iiQUVEAAH3ZpJzMjZNl28YCIoCgqZFk7FXYqwfzX5Fu7y+e/00qxm&#xA;NZoGPE8u7KTtv3rm70PacYR4J9Orp9Z2fKUuKHXos8r+Q7y2v477UyqCBg8UCkMS4+yWI2oOuS1v&#xA;acZQMYdeqNJ2dKMhKfRneaJ3LsVdirsVdirsVSjW/K+k6upM8fp3FKLcx7OPCv8AMPnmXptbkxcj&#xA;t3OLqNJDLz597zvXfJ2raTykK/WLQf8AHxGOg/y16r+rOh03aGPLtyl3Oi1Ghni35x70izOcNP8A&#xA;y75w1HSXSJ2NxY1o0DGpUf8AFZPT5dMwNX2fDKL5S7/1ubpddPFtzj3fqep2d3b3lrFdW7h4ZV5I&#xA;w8P6jOXyYzCRieYejhMSAI5F43rmovqOrXN2xqJHPp+yDZB/wIzsNNhGPGIvK6jKckzJF+WPLc2u&#xA;XbRh/StoQGnlpUivRR7nKtbrBhjfMnk26TSnNKuQD0/SNB0vSYuFnCFYijzNvI3zb+A2zmc+qnlN&#xA;yP6nocOmhjFRCYZjt7sVdiqE1PV9O0yD1r2ZYl/ZU7sx8FUbnLsOCeQ1EW1Zc0MYuRp5/rv5g395&#xA;yh04G0tzt6n+7WHzH2fo+/N9peyoQ3n6j9n7XSajtKUtoekfaxP4nbuzMfmSTm25Os5sp0HyBqN9&#xA;xmvibO1O4Uj96w9lP2fp+7NXqu1IQ2j6pfY7LT9mznvL0j7XoOl6Npulw+lZQiOv236u3+sx3Oc/&#xA;n1E8puRd3hwQxiohG5S3OxV2KuxV2KuxV2KuxV2KuxV2KuxV2KuxVxFdjirFvMHkPTr5XnsQLS73&#xA;PFdonPuv7PzGbTS9pzhtL1R+11up7OhPePpl9jzKWKSKV4pFKyRsVdT1DKaEZ0sZAiw8+QQaLPfy&#xA;y1F2ju9Pc1VKTRewPwuP1Zou2cQsT+Duuycuxh8WAZvnSPQ/ywH+g3p/4tX/AIjnP9s/VH3O97J+&#xA;mXvZrmlds7FWndI0Z5GCIoJZmNAAOpJOEAk0EE1uWEa9+YscZa30hebjY3Tj4R/qL3+Z+7N1peyS&#xA;d8nydRqe1ANsfzYLd3l1eTtPdStNK3V3NTm8x44wFRFB085ykbkbKZ6H5U1bV2DQx+lbftXMlQv+&#xA;x7sflmNqddjxc95dzfp9HPLy2He9E0LyhpOkhZET17sdbiQAkH/JHRf1++c9qdfky7co9zvdPooY&#xA;t+cu9O8wnMdirsVdirsVdirsVdirsVdirsVdirsVdirsVdirsVdirxrzN/ykGo/8xEn/ABLOx0f9&#xA;zH3B5TV/3svenX5Z/wDHduP+YV/+TkeYXbH90P636C5fZX94f6v6QxLNs6x6J+WH+8F7/wAZV/4j&#xA;nP8AbP1x9zveyfpl72aZpXbOxVgP5ja7J6q6RA1EAEl1TuTuqfQN/uzfdkaYV4h+DpO1NQb8MfFh&#xA;2nabeajdLa2cZlmbeg2AA6knsM3GXNHHHikaDq8WKU5VEbvQtB/L6wtOM+okXdwN/S/3Up+R+19O&#xA;3tnP6rtWc9oekfb+x3mn7NjHefqP2MtVVVQqgBQKADYADNSS7N2KoOTW9GikaOW/to5ENHRpUDAj&#xA;sQTlw02QixGXyLUdRjBoyHzCz9P6D/1crX/kdH/zVh/K5f5svkUfmcf86PzCtbappl1IY7W7hnkA&#xA;qUikRzTxopORnhnEXKJHvDKGaEjQIPxROVNjsVdirsVcSFBZjQDck9AMVQH6f0L/AKuVr/yOj/5q&#xA;y/8AK5f5svkWn8zj/nR+Yd+n9B/6uVr/AMjo/wDmrH8rl/my+RX8zj/nR+YRNrfWV2rNa3Edwqmj&#xA;GJ1cA+/EnK545Q+oEe9nDJGX0kFWyDN2KuxV2KuxV2KuxV415m/5SHUf+YiT/iWdjo/7mPuDymr/&#xA;AL2XvTr8s/8AjvT/APMK/wDycjzC7Y/uh/W/QXL7K/vD/V/SGJZtnWPRPyw/3gvf+Mq/8Rzn+2fr&#xA;j7ne9k/TL3s0zSu2dirx3zXK0nmPUGbqJiv0J8I/VnYaEVhj7nldYbyy97Lfyxt4hY3lxT960ojL&#xA;f5KqDT72zU9szPFEdKdn2TEcMj1tmuaV27sVdirxTSdNn1bU4rKNws05Yh3rSqqXNaVPbO0z5hig&#xA;ZHkHkcOI5JiI5lkn/KstW/5arf8A4f8A5pzXfyzj7j9jsP5Jn3hM/LfkS90zVor64uY2WENxSLlV&#xA;iyldyQNt8xdX2nHJjMQDv3uRpezpY5iRPJmmaZ2yEutW0u0PG6u4YW/ld1DfcTXLYYJz+mJLVPNC&#xA;PMgIVPNXl124jUIQfduI+80y06LMP4S1jWYj/EEyhuIJ0EkEiyxno6MGH3jMeUTE0RTfGQIsG1DV&#xA;LL69p1zZ8zH68bJzHaoyeHJwTEudFjmx8cDHvYF/yrLVv+WqD/h/+ac338s4+4/Y6X+SZ94Q9/8A&#xA;l9qdlZT3clzCyQIZGVedSFFdqrk8XasJyEQDu15OzZwiZEjZE/lix/St2tfhMFSPcOP65X2yP3cf&#xA;e2dk/Wfc9GznXfOxV2KuxV2KuxV2KvGvM3/KQ6j/AMxEn/Es7HR/3MfcHlNX/ey96dfln/x3p/8A&#xA;mFf/AJOR5hdsf3Q/rfoLl9lf3h/q/pDEs2zrHon5Yf7wXv8AxlX/AIjnP9s/XH3O97J+mXvZpmld&#xA;s7FXjXmb/lIdR/5iJP8AiWdjo/7mPuDymr/vZe9mn5Zf8cm6/wCYj/jRc03bP94Pd+l23ZP0H3sx&#xA;zTu1dirsVeS+Rf8AlKrH/nr/AMmXzrO0/wC4l8PvDzPZ/wDfR+P3F61nJvTKV1dW9rbyXFw4jhiH&#xA;J3PQDJQgZEAbksZzERZ5BhEur+YvM88kWlk2GlRkiS5J4kgfzON+n7K/Tm7jgw6YAz9U+78fe6eW&#xA;bLqCRD0w70plg8k6exSaW41W4GztERHFX2Na/cTmXGWpybgCA8+bjGOnhsSZn7GjfeTzQTaJPbof&#xA;20ndj9zkDD4Wo6ZAfgEeJg6wI+KKstFtrgtdeVNUdLpByazmPpy08KigYfRT3ynJqJR9OogOHvG4&#xA;bceAS9WCW/cebIfLXm6S6uTperJ9W1JDxUkcQ5HanZvwPbMDWaARj4mPeH3OdpdaZHgntNlGat2K&#xA;W+Zv+Ue1H/mHk/4jmTo/76PvDj6v+6l7mFfll/x1rr/mH/43XN12z/dj3/odT2T9Z9z0fOcd87FX&#xA;Yq7FXYq7FXYq8a8zf8pDqP8AzESf8SzsdH/cx9weU1f97L3p1+Wf/Hen/wCYV/8Ak5HmF2x/dD+t&#xA;+guX2V/eH+r+kMSzbOseiflh/vBe/wDGVf8AiOc/2z9cfc73sn6Ze9mmaV2zsVeNeZv+Uh1H/mIk&#xA;/wCJZ2Oj/uY+4PKav+9l72afll/xybr/AJiP+NFzTds/3g936Xbdk/QfezHNO7V2KuxVh/l7yLPp&#xA;eti+kuEkhh5/V1WvI81K/HUUFA3bNxq+0xlxcIG55uq03Z5x5OInYcmYZp3asK85zXGp61Y+Xrdq&#xA;K5ElwR71O/8AqoC2brs6IxY5Zj8Px5l1GvkcmSOIfFCarI1/er5Y0hhbaZZKfrs3RaJ9tnO1Qp+9&#xA;stwDgj4+T1TlyH3V+OTXmPHLwce0I8/x+N0Pp98yzGz8p6cJXTaTUZ1DSN/lVaioD2H4ZZlx2OLU&#xA;Sr+iOX7WvFk34cEb/pH8bI+V/wAxY43aRYb2P/dlvxheg8Cq8WOURGjJ2uJ7928nVgb1Ly2SgRWu&#xA;pl7nS4W0zXbOsj2cZIWQL9oxDYqw/lzL4pY/TkPHil17vf8ArcWhk3gODJHp+r9SL1GRPMHl8a1C&#xA;PT1fTCBdFNiyjfkKeH2h4b5TiHgZvCO+OfJtynx8XiD64c2Z+XNU/SmjW14394y8ZgP51PFvvpXN&#xA;Pq8HhZDHo7XS5vExiSJ1KzF7p9zaFuHrxtHz605Clcqw5OCYl3Fsyw44mPeEh8oeUrjRZrie5mSS&#xA;WVRGgjrQLWpJ5AbmgzP1+vGYARFAOFotEcRJJ5snzWOxdirsVSXWvN+j6ROLe4LyTkAtHEoYqD05&#xA;VKjM3T6DJlFjl5uJn1uPEaPPyTDTNUstTtFurN+cTbGooQw6qw7HMfNhljlwy5t+LNHJHijyRWVN&#xA;jsVeNeZv+Uh1H/mIk/4lnY6P+5j7g8pq/wC9l706/LP/AI70/wDzCv8A8nI8wu2P7of1v0Fy+yv7&#xA;w/1f0hiWbZ1j0T8sP94L3/jKv/Ec5/tn64+53vZP0y97NM0rtnYq8a8zf8pDqP8AzESf8SzsdH/c&#xA;x9weU1f97L3s0/LL/jk3X/MR/wAaLmm7Z/vB7v0u27J+g+9mOad2rsVdiqncTxW9vLcSnjFCjSSN&#xA;1oqipO3sMlCJkQBzLGUhEEnkEPpGq2uq2KXltyEbkgq4owINCDlmfBLFLhlzYYc0ckeIMRtJgPPW&#xA;s3birWltJInf+7VF/Vm2yR/wXHH+dIfbbq4S/wAJnL+aD+hJLdmt/Jl9ecv9I1C7W3d+/BV9Q7/5&#xA;RrXM2Y4tTGPSEb/Q4kTw6eUuspV+lMLuC6jXSPLNhJ9XF3Es95KvVnkqW5UoSFC9O+2UY5RPHnmL&#xA;4TQ+DfOMhwYYmuIWfio3egWdjb3V9ompu95pjBbpfskb0JUim1fmOuSx6qUyI5YemfJhPTRgDLHL&#xA;1Q5r9Wum9XQPMaKI7q52uQuwZomCk/7IEj5YMENsmE/SOXxTmnvjy9Tz+CL02BLXzfremAUtrqCQ&#xA;lO3xqHH3ByMqzSMtPjn1iR+r9Dbijw55w6EFHflnIx0a4Q9FuCR9KLlHbA/eA/0f0lu7KP7s+9P/&#xA;ANO2H6a/Q9W+t8PU6fD0rxr48d8wPy0/D8T+G3N/MR8Tw/4kwzHb3Yq7FXYq8e83MW8yX5JqfUp9&#xA;AAAzr9AP3Mfc8trT++l72W/lgT+j70V2Eq7f7HNT2z9cfc7Psn6Ze9mmaZ2zsVeNeZv+Uh1H/mIk&#xA;/wCJZ2Oj/uY+4PKav+9l706/LP8A470//MK//JyPMLtj+6H9b9Bcvsr+8P8AV/SGJZtnWPRPyw/3&#xA;gvf+Mq/8Rzn+2frj7ne9k/TL3s0zSu2dirxrzN/ykOo/8xEn/Es7HR/3MfcHlNX/AHsvezT8sv8A&#xA;jk3X/MR/xouabtn+8Hu/S7bsn6D72Y5p3auxV2KoDX/+ODqX/MLN/wAm2y/S/wB7H+sPvadT/dy/&#xA;qn7mD+V085nSlOkyRLZ82oH4V5d/tAnN5rTpvE/eA8Tp9INRweiuFL418x/pnVgrR/XhBL9fPw8T&#xA;F8PPjtSvTpl5OHw4c+Gxw+/o0AZfEn/Oo37kE41X/DSElf0X9a+FduXr8D9NOOXjw/G/p8P2W0nj&#xA;8H+hxfamDr5l/wAQ2ALx/pMwp9Ub4eIj4txrtTpXMcHD4MufBe/vbyM3ix/n1shoF1z09b9Nk4iv&#xA;6Trx3+Nvs7fzV6ZZI4rx3/mtcfEqdf5yy9GtfojSjOyGyJf6iBSoPL4uW1evjhx+H4k6+r+JGTxO&#xA;CF/T0R6x+aW813CK0Z1gx0lPw8Cvpr024/YplJODwAd/Dv8AS3AZvHP+qfsXeUR5ra0nXRZIlhEg&#xA;Mok415FR/MD2GR1/gcQ8UG6TovG4T4dUjdGGqjz9GNUZWvfTb1ClKU9I8elB0ynUeH+UPh/Tf6W7&#xA;Bx/mfX9X7HoWc+7x2KuxV2KvHfNv/KSah/xlP6hnX6H+5j7nldb/AHsvey78sP8AeC9/4yr/AMRz&#xA;Vds/XH3O07J+mXvZpmlds7FXjXmb/lIdR/5iJP8AiWdjo/7mPuDymr/vZe9Ovyz/AOO9P/zCv/yc&#xA;jzC7Y/uh/W/QXL7K/vD/AFf0hiWbZ1j0T8sP94L3/jKv/Ec5/tn64+53vZP0y97NM0rtnYq8a8zf&#xA;8pDqP/MRJ/xLOx0f9zH3B5TV/wB7L3s0/LL/AI5N1/zEf8aLmm7Z/vB7v0u27J+g+9mOad2rsVdi&#xA;qyeCK4gkglXlFKrJIvSqsKEbe2SjIxII5hjKIkCDyKG0nSrTS7JbO15ekpJq5qxLGpJ6ZZnzyyy4&#xA;pc2GHDHHHhjyYXb/APKV+ZP+YK4/40zcy/uMX9aP6XUx/v8AJ/VP6Epk/wCUBi/7aR/5MtmWP8bP&#xA;9T9Lin/Fh/X/AEJ1J/ynGi/8wsf/ACbfMIf4rk/rH7w5Z/xmH9UfcUBZ/wBz5t+n/k6+X5OeH8dA&#xA;0w5Zvx1Knqv/ACjHlz/Xl/4mMlg/v8vw+5jm/ucfxTokW35mEybC6jAjJ2/3SB+tCMw/q0W38J/T&#xA;+1y/p1m/UfoUvL8g0Lzfe6XMeEF6a27HpWpaP7wxX55LVDx9PHIOcef6WOmPg55QPKXL9DK/0Jp/&#xA;6X/S3A/XOHp8qnj0pWnjTbNV+Zn4fh/wuz/Lx8Tj/iR+UNzsVdirsVeO+bf+Uk1D/jKf1DOv0P8A&#xA;cx9zyut/vZe9l35Yf7wXv/GVf+I5qu2frj7nadk/TL3s0zSu2dirxrzN/wApDqP/ADESf8SzsdH/&#xA;AHMfcHlNX/ey96dfln/x3p/+YV/+TkeYXbH90P636C5fZX94f6v6QxLNs6x6J+WH+8F7/wAZV/4j&#xA;nP8AbP1x9zveyfpl72aZpXbOxV415m/5SHUf+YiT/iWdjo/7mPuDymr/AL2XvZp+WX/HJuv+Yj/j&#xA;Rc03bP8AeD3fpdt2T9B97Mc07tXYq7FXYq7FXn9v/wApX5k/5grj/jTN/L+4xf1o/pdJH+/yf1T+&#xA;hKZP+UBi/wC2kf8Aky2ZY/xs/wBT9Lin/Fh/X/QnUn/KcaL/AMwsf/Jt8wh/iuT+sfvDln/GYf1R&#xA;9xQFn/c+bfp/5Ovl+Tnh/HQNMOWb8dSv1S0lk8iaReRCv1R2L07K7kV/4IAYMOQDVTif4v1JzQJ0&#xA;0JD+FM/MVudb0qz8waSa3dqAzKm7gKeRH+tG2+Y2kn4OSWHJ9Mvx9rk6qPjQGWH1D8fYpTPYecdP&#xA;jMLrb69arUITxDU60Pde48Dkoiejmb3xS/H472EjHVR22yBkvlmTWH0pRq8ZS7jYpVqVdRSjGhO/&#xA;bNbrBjGT92fS7DSHIYev6k1zFcl2KuxV2KvHfNv/ACkmof8AGU/qGdfof7mPueV1v97L3su/LD/e&#xA;C9/4yr/xHNV2z9cfc7Tsn6Ze9mmaV2zsVeNeZv8AlIdR/wCYiT/iWdjo/wC5j7g8pq/72XvTr8s/&#xA;+O9P/wAwr/8AJyPMLtj+6H9b9Bcvsr+8P9X9IYlm2dY9E/LD/eC9/wCMq/8AEc5/tn64+53vZP0y&#xA;97NM0rtnYq8a8zf8pDqP/MRJ/wASzsdH/cx9weU1f97L3s0/LL/jk3X/ADEf8aLmm7Z/vB7v0u27&#xA;J+g+9mOad2rsVdiqU2HmnRb7UGsLaYtcLypVSFbj14nvmXl0WSEOOQ2cbHrMc5cIO6bZiOSwKCIj&#xA;zprtuft3FpMqfN1Rh+Gb2Uv8GxnukP0uliP8IyDvif0JOgE3kGQL1tr8O/yaPiCfpbMw7asecP0u&#xA;KN9MfKf6EzvLuKHXvLurOQLaa2iVnPQMKq//AAPMZjY8ZOLLj6iR/H2OROYGXHPoYhZbNaabr2s6&#xA;Xq5MNvqXIJcHoAzEo3y+Lr2IyUxLJixzx7mHRETHHlnCewn1bgvNY8tQGzvrddQ0GaoSVPiQpJ14&#xA;sKgcq/Zb6MEsePUnigeDKFjPJpxwyHFjKpp+i3yldU8o3nK1lbjJazHiVI6q4OzAV+fhXI5dRE/u&#xA;9RH1DqGWPBL68B2PQsui8u6THqY1RbcJe0PJkJC8mFGbj0qQTmplq8hh4d+l2cdLAT469SPnmigh&#xA;eaVgkUal3c9AqipOURiZGhzLfKQAs8kv0bzJpWrtKtnIxeLdkdSpodgw9syNRo8mGuLq0YNVDLfD&#xA;0TPMVyHYq7FXjvm3/lJNQ/4yn9Qzr9D/AHMfc8rrf72XvZd+WH+8F7/xlX/iOartn64+52nZP0y9&#xA;7NM0rtnYq8a8zf8AKQ6j/wAxEn/Es7HR/wBzH3B5TV/3svenX5Z/8d6f/mFf/k5HmF2x/dD+t+gu&#xA;X2V/eH+r+kMSzbOseiflh/vBe/8AGVf+I5z/AGz9cfc73sn6Ze9mmaV2zsVeNeZv+Uh1H/mIk/4l&#xA;nY6P+5j7g8pq/wC9l72afll/xybr/mI/40XNN2z/AHg936Xbdk/QfezHNO7V2KuxV5L5F/5Sqx/5&#xA;6/8AJl86ztP+4l8PvDzPZ/8AfR+P3F61nJvTJBdeXblvNdrrVvKiRqvG5Q15GilduxqCB7Znw1cR&#xA;gOIjfo4U9KfHGQH3sfstLNp5h1Ly/NGxsdVRmgcDZeILo3+x3HzpmfkzceGOYH1Q5/cXBx4eHLLE&#xA;fpmhdNsJbpJvKepKYrqBml0+4pUKerD3RhvlubKIkaiG8TtIfjqGvFjMrwT2I3ifx0XtLcwvBovm&#xA;ixM8VRFaXqf3igmg4uPtj26+IwCMTeXBKjzI6fsSSRWPNGx0LMdC8vW+k2Etl6rXMMrlisoBUAin&#xA;Hj0+eafU6s5ZiVUR3O10+mGOJjdhHWVhZWMRhtIVgiLFyiCgLHqfwynJllM3I2W7HjjAVEUr5WzS&#xA;3zN/yj2o/wDMPJ/xHMnR/wB9H3hx9X/dS9zCvyy/4611/wAw/wDxuubrtn+7Hv8A0Op7J+s+56Pn&#xA;OO+dirsVeO+bf+Uk1D/jKf1DOv0P9zH3PK63+9l72Xflh/vBe/8AGVf+I5qu2frj7nadk/TL3s0z&#xA;Su2dirxrzN/ykOo/8xEn/Es7HR/3MfcHlNX/AHsvenX5Z/8AHen/AOYV/wDk5HmF2x/dD+t+guX2&#xA;V/eH+r+kMSzbOseiflh/vBe/8ZV/4jnP9s/XH3O97J+mXvZpmlds7FXjXmcEeYdQB2/fufvNc7HR&#xA;f3Mfc8pq/wC9l72aflkR+irsd/X6f7Bc03bP94Pc7bsn6D72Y5p3auxV2KvHPK+o22na7bXlySII&#xA;ufMqKn4o2UbfM52GtxSyYjGPM197yukyjHkEjyH6mff8rD8t/wA8v/Is5of5JzeXzd1/KeLz+SM0&#xA;rzdomp3QtbaVhOwJRHUryoKmh6dMpz6DLjjxSGzbh1uPIeEHdOcw3LWmGEyiUoplUcRJQcgPCvXD&#xA;xGq6I4Rd9VxANKitNxgS7FVk88NvC88zBIolLu56AAVJyUYmRocyiUhEWeTHT+YXlsEgSSkDuIzv&#xA;9+bD+Ss3cPm4H8p4vP5IDXfPWiXWkXVtb+o808ZjQFOIHLapJ8Mv03ZmWOQSNUC06jtDHLGQLspZ&#xA;+WX/AB1rr/mH/wCN1zK7Z/ux7/0OP2T9Z9z0fOcd87FXYq8d82H/AJ2PUP8AjKf1DOv0P9zH3PK6&#xA;z+9l72XflgD9QvT29Vd/9jmp7Z+uPudp2T9MvezTNM7Z2KvGvM3/ACkOo/8AMRJ/xLOx0f8Acx9w&#xA;eU1f97L3p1+Wf/Hen/5hX/5OR5hdsf3Q/rfoLl9lf3h/q/pDEs2zrHon5Yf7wXv/ABlX/iOc/wBs&#xA;/XH3O97J+mXvZpmlds7FXl/5haW9rrZuwP3F4oZT2DqArD9R+nOn7KzCWLh6xed7TwmOTi6SQPlb&#xA;zLLol2zFPVtZqCeIddujL7iuXa3RjNHukOTTpNUcMvI83qGla3puqw+rZzB6D44zs6/6y5zOfTTx&#xA;GpB6LDqIZBcSjsobnYqw6f8ALPTJJneO6lijYkrHRSFB7AnNxHtiYFEAuql2VAnYkLP+VYWH/LbL&#xA;/wACuS/lmf8ANCP5Jj/OKO0XyJp+l36Xonkmkir6asAFBIIqaddjmPqe055YcNAAt2Ds6OOXFZNM&#xA;mzWuwdirsVdiqje2cN7aTWs4JimUo9NjQ+GTx5DCQkOYYZICcTE8ixH/AJVhYf8ALbL/AMCubb+W&#xA;Z/zQ6z+SY/zi7/lWFh/y2y/8CuH+WZ/zQv8AJMf5xTny75TstEeWWKR5ppQFLvQUUb0AHvmFq9dL&#xA;MACKAcrS6OOGyDZKd5hOY7FWM+YPPOm6erw2jC6vOgCmsaH/ACm708B+GbPS9mTyby9Mftdfqe0I&#xA;Q2jvJ5hPNLPNJNKxeWVi7sepZjUnOmjERAA5B52UiTZ5vVvI+lvYaDH6q8ZrljO6nqAwAUf8CBnK&#xA;9pZhkymuQ2el7PwmGIXzO6f5gOa7FXjXmb/lIdR/5iJP+JZ2Oj/uY+4PKav+9l706/LP/jvT/wDM&#xA;K/8AycjzC7Y/uh/W/QXL7K/vD/V/SGJZtnWPRPyw/wB4L3/jKv8AxHOf7Z+uPud72T9MvezTNK7Z&#xA;2KoPV9Js9VsntLpao26sPtKw6Mp8cuwZ5YpcUWrNhjkjwyeX695Q1XSC0jJ69mOlzGNgP8sdV/V7&#xA;50+l1+PLtyl3PO6jRTxb8496T21zcW0yzW8jRSp9l0JBH3ZlzgJCiLDixmYmwaLONB/Mb7MGsL7C&#xA;7jH/ABNB+tfuzSarsjrj+Tt9P2p0yfNnFtdW11Cs9vIssL/ZdCCD92aScDE0RRdxCYkLBsKmRZOx&#xA;V2KuxV2KuxV2KuxV2KuxV2KpXrXmXStIQ/WZeU1Krbp8Uh+jsPc5lafR5Mp9I27+jjZ9VDFzO/c8&#xA;717zpquq8olP1WzO3oxndh/ltsT+rOh0vZ2PFv8AVLvdHqNfPJtyikUMM00qxQo0krmiooJJPsBm&#xA;dKQiLOwcKMSTQZz5Y8gSJLHeauB8JDR2nXft6nb/AGP3+GaPW9qAgxx/P9TudJ2aQeLJ8v1s8zRO&#xA;5dirsVeNeZv+Uh1H/mIk/wCJZ2Oj/uY+4PKav+9l706/LP8A470//MK//JyPMLtj+6H9b9Bcvsr+&#xA;8P8AV/SGMXls9rdzWz/bhdo2+ammbPHMSiJDq66cOGRB6Mn8geYbTTriazvGEcNyVZJjsqutRRj2&#xA;B8c1namklkAlHch2PZupjAmMuRelKysoZSGVhUEbgg5zZFPQAt4q7FXEAih3B6jFWK695B06+5TW&#xA;NLO6O/ED90x91H2fo+7Nppe1Jw2l6o/a63UdmwnvH0n7Hn+q6LqWlzelewmOv2JOqN/qsNs6DBqI&#xA;ZRcS6TNgnjNSDtK1rUtLm9WymMdftx9Ub/WU7Y59PDKKkFw554zcS9A0Hz9p19xhvqWd0duRP7pj&#xA;7Mfs/T9+c/quy5w3j6o/a7vT9pQntL0n7GVAgio3B6HNW7J2KuxV2KuxV2KuxV2Koe/1Gx0+Az3k&#xA;ywxDu3UnwAG5PyyzFhlkNRFlryZYwFyNBgWvfmJdXHKDSlNvF0Nw1PUP+qOi/rzfaXsmMd8m57uj&#xA;pdR2nKW0Nh39WHSSPI7PIxd2NWZjUknuSc24AAoOrJJ3LI9B8japqXGa4Bs7Q783HxsP8lP4n8c1&#xA;2q7Thj2Hqk5+n7Pnk3Ppi9C0fy/pekxcLSIByKPM28jfNv4DbOf1GqnlPqPw6O8waaGIekJjmO3u&#xA;xV2KoPVNWsNMtjcXkojUfZX9pj4KO5y7DgnllUQ1Zs0cYuReN6heNe39xdsOLTyNIVHbka0+jOwx&#xA;Y+CAj3B5TLPjkZd5Zb+WNqzX15d0+GOIRV93YN/xpmq7Zn6Yx87/AB83Z9kw9UpeSI8++VppJG1e&#xA;yTmSB9biXrtsJAPl9r7/AByvsvWgDw5fD9TZ2joyTxx+P62BZvXSpxofmrVtIYLDJ6ttX4raTdP9&#xA;j3U/LMTU6HHl5ipd7lafWTxcuXc9E0LzfpOrBY1b6vdnrbyEVJ/yD0b9ftnPanQZMW/OPe73T62G&#xA;XblLuTzMFzHYq7FVO5tba6haC4jWWF/tI4BB+/JQmYmwaLGcBIURYYPr35c/an0dvc2kh/4g5/U3&#xA;35u9L2v0yfN0+o7L64/kwe5tri2maG4jaKVPtI4II+/N3CYkLBsOolAxNEUU40Lzfq2kFY1b6xaD&#xA;rbyE0A/yD1X9XtmJqdBjy78pd7lafWzxbc49z0TQ/NWk6uoWGT0rn9q2koH/ANj2YfLOe1OhyYuY&#xA;uPe73T6yGXlz7k4zDcp2KuxV2KrZJI40Z5GCIoqzMQAB7k4QCTQQSBuWHa9+YlrByg0pRcS9DcNU&#xA;Rg/5I6t+r55uNL2TKW+TYd3V1Wo7TA2hue9gV/qN9fzme8maaU92OwHgB0A+Wb3FijjFRFB02TLK&#xA;ZuRsozRfLeq6u9LWKkINHuH2jH09z7DKtRrMeIeo79zZg0s8p9I273omg+StK0vjK4+tXg39aQbK&#xA;f8heg+fXOe1XaOTLsPTF3un0EMe/OTIM17nOxV2KrJpoYImlmdY4kFWdyAAPcnDGJkaG5RKQAssL&#xA;178xoo+UGkKJX6G6cfCP9Ve/zP45utL2STvk28nU6jtQDbH82C3l7d3s7T3UrTTN1djX6B4DN5jx&#xA;xgKiKDpp5JTNyNluwsLu/uktbWMyTSHYDsPEnsBgy5Y448UjQXHjlOXDHm9e8vaLFo+mR2iENJ9u&#xA;eQftOep+XYZyWr1BzTMvk9RpsAxQ4UyzGchjmveR9L1PlNAPql2d/UQfAx/yk/iM2Ol7SyY9j6ou&#xA;BqOz4ZNx6ZPPNY8vappEnG7ipGTRJ0+KNvk38DvnQ6fV48o9J+HV0efTTxH1BLQSDUbEdDmQ47Kt&#xA;B8/ajY8Yb2t5bDapP71R7MftfT9+avVdlwnvH0y+x2Wn7SnDaXqH2vQNK1rTdUh9WymElPtxnZ1/&#xA;1lO+aDPp54jUg7vDnhkFxKOyhudirsVQOq6Jpuqw+leQh6D4JBs6/wCq2X4NTPEbiWnNp4ZBUg8+&#xA;17yDqVhymsq3lqN6KP3qj3Ufa+Y+7N/pe1IT2l6ZfY6PUdnThvH1D7WLgsjBlJVlNQRsQRm05uu5&#xA;Mt0H8wb604waiDd242Ev+7VHzP2vp+/NTquyoz3h6T9js9P2lKO0/UPtZ/purafqUHrWUyyp+0Bs&#xA;ynwZTuM0GbBPGakKd3izRyC4m0XlTax/XvOulaXyiRvrV4NvRjOyn/LbcD5dc2Gl7OyZdz6Y97g6&#xA;jXwx7c5PO9a8yarq7k3MtIa1W3TaMfR3Puc6DT6PHiHpG/f1dHn1U8p3O3cg7DTr2/nEFnC00p7K&#xA;NgPEnoB88uy5Y4xcjQaseKUzURZZ7oP5d20HGfVWFxL1FutfTB/yj1b9XzzRartaUtsew7+rudP2&#xA;YBvPc9zMY4440WONQkaiiooAAHgAM05JJsu1AAFBdgS7FXYqxvXvPOl6byhtz9cuxtwQ/Ap/yn/g&#xA;PwzZaXs3Jk3Ppi4Go7Qhj2Hqk881jzBqmrS8ryYlAapAvwxr8l/id86DT6XHiHpHx6uiz6meU+op&#xA;cASQAKk9BmQ0Mr0HyBqN9xmvybO2O/Ej96w9lP2fp+7NXqu1IQ2h6pfY7LT9mznvL0j7XoGl6Np2&#xA;lw+lZQiMH7b9Xb/WY7nOfzaieU3I27vDghjFRCNyludirsVWywxTRtFKiyRuKOjAFSPcHDGRBsc0&#xA;SiCKLC9e/LqGXlPpLCKTqbZz8B/1W6r8j+GbnS9rEbZN/N1Oo7LB3ht5MEvLG8spzBdwtDKvVWFP&#xA;pHiM3uPLGYuJsOmyY5QNSFFZbXNxbTLNbyNFKn2XQkEfdhnASFEWERmYmwaLIdJ8+63a3Km7lN3b&#xA;E/vI3A5U8VYAGua/P2XilH0jhk52HtHJE+o8QeoQzRzQpNGeUcih0bxVhUHOYlEg0eYeijIEWF+B&#xA;LsVdiqR675P0nVuUjL9Xuz/x8RgVJ/y16N+v3zO02vyYtuce5w9RoYZd+Uu953rnlbVtIYtPH6lt&#xA;+zcx1KfT3U/POh02tx5eRo9zotRo54ufLvS20vLuznWe1laGZejoaH5fLMjJjjMVIWGiGSUTcTRT&#xA;K783+Y7qD0Jr1vTIowRVQn5lApzGx6DDE2It89blkKMkpjjeR1SNS7saKqipJPYAZlkgCy4wBOwZ&#xA;hoP5d3Vxxn1RjbwncQL/AHh/1j0X9eajVdrRjtj3Pf0dpp+zJS3nsO7qz2w06x0+AQWcKwxDso3J&#xA;8WJ3J+eaHLmlkNyNl3WPFGAqIpE5W2OxV2KpXrXmTStIjrdS1mIqlum8h+jsPc5lafR5Mp9I27+j&#xA;j59VDEPUd+555r3nXVdU5RRn6rZnb0oz8TD/AC27/LpnQaXs7Hi3Pqk6LUa+eTYbRY9mwcFOdD8q&#xA;atq5DxJ6Vt3uZKhf9j3b6Mw9TrseLnvLucvT6OeXlsO96JoXlHSdIAdE9e6HW5kFWH+qOi/rzntT&#xA;r8mXY7R7ne6fRQxbjeXeneYTluxV2KuxV2KuxV2KoXUdK0/UoDBewrMn7NftKfFWG4+jLcOeeM3E&#xA;015cMcgqQt5R5n0F9H1N4AGNq/xW0jb8l7ioAFVOxzqtFqhmhf8AF1ea1enOKddOiWW1tPczpBAh&#xA;kmkPFEXcknMmcxEWeQceMTI0Ob2zTbZrXTrW1Y1aCGOIkdyihf4ZxeafFMy7yS9bihwwEe4IjK2x&#xA;2KuxV2KtMqspVgGUihU7gjCDSkWxjU/y90W7kaW3L2cjbkR0Mdf9Q9PoObLD2rlgKPq+912XszHI&#xA;2PSl0X5XQh6y6izJ4LEFP3l2/VmTLto9I/b+xoHZA6y+xkuj+WtI0gVtIf3pFGnk+KQ/T2+jNbqN&#xA;Zky/Udu7o7DBpYYvpG/emmYrkOxV2Koe+1GysIDPeTLDEO7HcnwA6k+wyzFilkNRFlryZYwFyNBg&#xA;evfmJcz8oNJUwRdDcOB6h/1R0X9fyze6XsmMd8m57ujptR2mTtDYd7DZJJJHaSRi8jGrOxJJPiSc&#xA;3AAAoOqJJNlFaZpGo6nP6NlC0rftMNlUeLMdhlebPDGLkabMWGeQ1EWz/Qfy+sLPjNqJF3cDf06f&#xA;uVPyP2vp+7NBqu1Zz2h6R9ru9P2bGO8/UfsZaAFAVRQDYAdAM1Ls3Yq7FXYq7FXYq7FXYq7FXYqp&#xA;XVna3cXpXUKTxHfhIoYV8d8nDJKBuJosZwjIURahY6NpVixa0tY4XOxdVHKnhy65PJqMk/qJLDHg&#xA;hD6QAjMpbXYq7FXYq7FXYq7FXYq7FXYq07pGjPIwRFFWZjQADuScIBJoIJrcsO178xLS35QaWouZ&#xA;hsbhv7oH/J7t+r55t9L2TKW+TYd3V1eo7TjHaG57+jAr/Ur7UJzPeTNNIehY7AeCjoB8s32LDHGK&#xA;iKDpcmWUzcjajBBNPKsMEbSyuaIiAsxPsBk5SERZNBhGJkaHNm2g/lzI/GfV24L1FrGfi/2bDp9H&#xA;35pdV2uBtj+bt9P2WTvk+TObSztbOBYLWJYYV6IgoPn880c8kpm5Gy7mEIxFAUFbIMnYq7FXYq7F&#xA;XYq7FXYq7FXYq7FXYq7FXYq7FXYq7FXYq7FXYq7FXYqkGvedNK0rlErfWrsbehGRRT/lt0H68z9L&#xA;2dky7/THvcLUa+GPbnJ53rXmbVdXf/SZOMANVt0qIx9Hc+5zodNo8eIekb97os+rnl5nbuSrMpxm&#xA;TaD5E1PUeM11WztDuGcfvGH+Sv8AE/jmt1XacMe0fVL7HYafs6c95emL0LSNB0vSYuFnCFYijzNv&#xA;I3zb+A2zn8+qnlNyP6neYdPDEKiEwzHb3Yq7FXYq7FXYq7FXYq7FXYq7FXYq7FXYq7FXYq7FXYq7&#xA;FXYq7FXYqg9W1ay0qza7u3Kxg8VAFWZj0VR45dgwSyy4Y82rNmjjjxSec69571TUeUNrWztDtxQ/&#xA;vGH+U/8AAfjnRaXsyGPeXql9jodR2jOew9MWM5snXprovlnVtXcfVouMFaNcSfDGPkf2j8sxdRrM&#xA;eL6jv3OTg0k8vIbd70TQfJmlaVxlZfrN4N/XkGyn/IXov6857Vdo5Mu30x7ne6fQwx785d6f5gOa&#xA;7FXYq7FXYq7FXYq7FXYq7FXYq7FXYq7FXYq7FXYq7FXYq7FXYq7FXYq7FWKfmJpt3d6VDLbo0n1a&#xA;QtJGu54sKcqe2bXsnNGGQg7WHW9p4pSgCOjz3TtK1DUZ/Qs4Wlk/ap0UeLMdh9OdBlzwxi5GnRYs&#xA;MshqItnuhfl5ZW3GbU2F1ON/RH90p9+7ZodT2tKW0PSO/q7vT9mRjvPc/Yy9ERECIoVFFFUCgA9g&#xA;M1JN83ZgU3gS7FXYq7FXYq7FXYq7FXYq7FXYq//Z</xmpGImg:image>
               </rdf:li>
            </rdf:Alt>
         </xmp:Thumbnails>
         <xmpTPg:MaxPageSize rdf:parseType="Resource">
            <stDim:w>52.599998</stDim:w>
            <stDim:h>58.851002</stDim:h>
            <stDim:unit>Pixels</stDim:unit>
         </xmpTPg:MaxPageSize>
         <xmpTPg:NPages>1</xmpTPg:NPages>
         <xmpTPg:HasVisibleTransparency>False</xmpTPg:HasVisibleTransparency>
         <xmpTPg:HasVisibleOverprint>False</xmpTPg:HasVisibleOverprint>
         <xmpTPg:PlateNames>
            <rdf:Seq>
               <rdf:li>Cyan</rdf:li>
               <rdf:li>Magenta</rdf:li>
            </rdf:Seq>
         </xmpTPg:PlateNames>
         <xmpTPg:SwatchGroups>
            <rdf:Seq>
               <rdf:li rdf:parseType="Resource">
                  <xmpG:groupName>Default Swatch Group</xmpG:groupName>
                  <xmpG:groupType>0</xmpG:groupType>
               </rdf:li>
            </rdf:Seq>
         </xmpTPg:SwatchGroups>
         <dc:format>image/svg+xml</dc:format>
      </rdf:Description>
   </rdf:RDF>
</x:xmpmeta>
                                                                                                    
                                                                                                    
                                                                                                    
                                                                                                    
                                                                                                    
                                                                                                    
                                                                                                    
                                                                                                    
                                                                                                    
                                                                                                    
                                                                                                    
                                                                                                    
                                                                                                    
                                                                                                    
                                                                                                    
                                                                                                    
                                                                                                    
                                                                                                    
                                                                                                    
                                                                                                    
                           
<?xpacket end="w"?>
  </metadata>
</svg>