<?xml version="1.0" encoding="UTF-8"?><svg id="a" xmlns="http://www.w3.org/2000/svg" viewBox="0 0 52.729 59"><path id="b" d="M26.364,50.394c-.736,0-1.449-.191-2.061-.556l-14.531-8.386c-1.267-.728-2.055-2.091-2.055-3.559v-16.782c0-1.468.788-2.831,2.056-3.559l14.536-8.39c.622-.362,1.332-.554,2.055-.554s1.434.191,2.058.555l.375.224,2.357,1.365c.072-.011.146-.017.224-.017.884,0,1.604.719,1.604,1.604s-.72,1.604-1.604,1.604c-.836,0-1.525-.644-1.598-1.462l-2.152-1.23-.095-.083-.203-.096c-.302-.169-.633-.258-.964-.258s-.664.088-.958.254l-14.531,8.388c-.586.344-.952.977-.952,1.654v16.782c0,.677.366,1.312.955,1.656l14.534,8.389c.286.162.616.25.952.25s.668-.087.955-.252l14.534-8.389c.587-.343.953-.977.953-1.654v-11.9c0-.619.483-1.103,1.103-1.103s1.103.484,1.103,1.103v11.9c0,1.468-.788,2.831-2.056,3.559l-14.535,8.39c-.608.36-1.319.552-2.056.552h-.003Z" fill="#a0e9cc"/><path id="c" d="M28.495,58.94c-.062.034-.211.06-.362.06-.471,0-.905-.253-1.134-.659-.113-.225-.163-.425-.163-.644,0-.467.252-.899.658-1.129l21.779-12.578c.525-.308.853-.875.853-1.482v-25.464c0-.606-.328-1.174-.856-1.483L27.217,2.832c-.259-.146-.554-.224-.852-.224s-.596.079-.859.228L3.457,15.564c-.524.307-.852.875-.852,1.481v25.464c0,.606.328,1.175.856,1.483l7.559,4.357c.101-.017.203-.025.308-.025.905,0,1.672.679,1.786,1.579.019.084.019.176.019.226,0,.563-.275,1.109-.737,1.46-.334.232-.69.345-1.068.345-.848,0-1.58-.598-1.761-1.412l-7.412-4.28c-1.329-.763-2.155-2.194-2.155-3.732v-25.464c0-1.539.826-2.969,2.156-3.733L24.209.58c.651-.38,1.397-.58,2.155-.58s1.505.202,2.158.582l22.053,12.731c1.328.763,2.154,2.194,2.154,3.732v25.464c0,1.539-.826,2.969-2.156,3.733l-18.113,10.451" fill="#a0e9cc"/><path d="M17.86,35.609c-.061,0-.121-.002-.181-.01-.456-.051-.748-.356-.762-.797-.014-.395-.011-.789-.008-1.184v-.299c.002-.154.049-.281.131-.369-.578-.104-.771-.382-.771-1.041v-9.097c0-.435.095-1.012.904-1.012.064,0,.134.003.208.01.201.018.401.03.612.043l.065.004v-.763c.006-.644.322-.957.965-.957.813.003,1.623.128,2.483.382.479.142.437.48.396.619-.062.214-.22.332-.446.332-.066,0-.136-.01-.207-.022-.66-.119-1.32-.236-1.981-.343-.044-.007-.089-.009-.136-.009l-.113.003s0,6.625-.004,9.093q0,.14.103.167c2.698.711,4.907,1.787,6.743,3.285l.034-6.643c-.012-.143-.023-.258.049-.357.099-.138.237-.301.422-.329h.004c.224,0,.375.219.448.35.058.103.047.213.039.301l-.031,7.054c1.824-1.504,4.051-2.596,6.794-3.328l.098-.115c-.006-2.48-.005-4.96-.005-7.44v-1.688c-.055-.002-.106-.002-.159-.002-.562,0-1.086.097-1.525.191l-.109.03c-.073.014-.146.025-.215.025-.24,0-.406-.136-.454-.373-.036-.182.017-.305.067-.376.084-.117.225-.189.418-.215l.518-.071c.488-.068.978-.136,1.467-.171l.103-.003c.312,0,.839.121.852.929l.008.784s.826-.055.829-.055c.634,0,.951.333.951.913.002,3.105.002,6.21,0,9.315,0,.544-.244.842-.764.925.066.086.103.2.103.336v.299c.003.285.005.569-.002.854-.013.424-.295.741-.719.809-.083.014-.168.016-.253.016h-16.851l-.115-.199v.2ZM34.718,34.65c.092,0,.125-.01.135-.014-.002-.003.004-.033,0-.104-.015-.198-.012-.397-.009-.597l.003-.292c0-.111.021-.208.061-.287-2.3.18-4.367.603-6.295,1.288h2.342c1.255,0,3.765.006,3.765.006ZM24.951,34.627c-1.429-.605-2.962-1.032-4.668-1.301-.823-.129-1.67-.212-2.491-.292.048.082.074.185.076.305v1.288h7.083ZM34.679,23.161s-.012.029-.011.13c.008,2.01.007,4.02.006,6.03v1.291c0,.592-.205.854-.781,1.001-1.388.354-2.7.852-3.9,1.479-.148.077-.294.157-.439.239,1.795-.521,3.725-.841,5.842-.964.082-.005.106-.018.109-.02h0s.01-.028.009-.124c-.006-2.361-.006-4.723-.005-7.083v-2.034l-.076.006c-.2.019-.388.036-.575.036h-.076c-.075,0-.099.01-.103.012h0ZM17.244,32.008c2.176.142,4.144.47,5.971.997-1.306-.733-2.724-1.297-4.305-1.714-.685-.181-.853-.397-.853-1.106v-7.36l-.813-.058v9.242Z" fill="#a0e9cc"/><path d="M33.708,42.2c-.097,0-.194-.012-.29-.034-.537-.126-.919-.621-.909-1.177.002-.081-.005-.098-.102-.148l-1.44-.772c-.704-.379-1.408-.758-2.115-1.13-.403-.211-.594-.526-.584-.963.01-.372.007-.744.005-1.116l-.002-.297c-.002-.508.328-.566.47-.567.181,0,.288.071.347.131.1.101.149.251.147.448v.821c-.151.479.021.724.674,1.035.767.365,1.521.782,2.249,1.185l.72.396.145-.005c.203-.147.442-.226.692-.226.303,0,.593.114.817.32.402.371.507.948.26,1.436-.206.409-.621.664-1.083.664ZM33.712,40.746c-.139,0-.25.105-.254.239-.002.063.021.124.066.171.047.05.11.078.179.079h0c.145,0,.257-.104.261-.238.002-.062-.021-.123-.066-.171-.048-.05-.111-.079-.18-.08l-.006-.2v.2Z" fill="#a0e9cc"/><path d="M19.017,42.199c-.452,0-.863-.247-1.072-.645-.259-.491-.151-1.092.262-1.462.225-.2.512-.311.81-.311.244,0,.477.074.673.214l.17.011c1.158-.63,2.319-1.254,3.486-1.867.129-.067.159-.118.154-.259-.011-.272-.009-.547-.007-.82v-.468c-.004-.507.292-.591.469-.597h.001c.156,0,.268.043.351.127.13.132.144.325.142.479l-.003.925c-.002.132-.005.264.004.395.034.468-.165.808-.609,1.04-.625.328-1.247.661-1.869.995-.539.289-1.078.578-1.619.863-.122.064-.142.094-.14.21.005.529-.391,1.019-.922,1.139-.092.021-.186.031-.279.031ZM19.009,40.746c-.067,0-.131.03-.179.08-.045.048-.068.107-.067.17.004.135.115.239.253.239.076,0,.139-.029.187-.079.045-.047.069-.107.067-.17-.004-.133-.118-.24-.255-.24v-.2l-.005.2Z" fill="#a0e9cc"/><path d="M26.492,41.818c-.546,0-1.028-.371-1.171-.903-.146-.543.102-1.104.603-1.361.083-.042.091-.057.089-.152-.007-.353-.006-.705-.004-1.058v-1.842c0-.208,0-.605.458-.646h.005c.348,0,.499.222.5.657v.425c.001.806.002,1.612-.002,2.417-.001.142.014.16.101.204.498.25.74.811.59,1.364-.146.528-.608.889-1.154.896h-.013ZM26.485,40.362c-.069,0-.131.029-.178.077-.044.048-.068.109-.066.173.004.137.113.239.253.239.074,0,.136-.029.183-.078.045-.048.069-.109.067-.174-.004-.133-.115-.237-.251-.237v-.2l-.008.2Z" fill="#a0e9cc"/><path d="M25.002,28.347c-.111,0-.22-.043-.323-.126-1.034-.844-2.327-1.29-3.951-1.365-.259-.018-.664-.044-.664-.515,0-.137.06-.457.614-.457,1.625.083,2.899.454,3.985,1.134.222.139.429.305.63.475.113.095.178.213.185.341.005.088-.014.221-.14.354-.121.13-.25.158-.338.158Z" fill="#a0e9cc"/><path d="M24.657,31.294c-.057,0-.142-.007-.218-.041-.124-.056-.221-.137-.314-.216-.05-.042-.1-.085-.153-.12-.921-.61-1.979-.954-3.233-1.051-.22-.018-.35-.028-.481-.033-.171-.006-.304-.059-.394-.158-.056-.062-.122-.171-.112-.345.015-.28.21-.454.51-.454l.145.202-.003-.2c1.848.11,3.209.561,4.352,1.417.143.102.254.179.303.306.048.125.103.402-.038.561-.104.12-.289.133-.363.133Z" fill="#a0e9cc"/><path d="M27.866,28.347c-.095,0-.233-.032-.355-.187-.179-.226-.138-.496.106-.705.661-.564,1.422-.962,2.261-1.184.509-.135,1.028-.229,1.548-.324.226-.041.867-.164.867-.164l.02.089h.017l.104.051c.169.12.309.218.354.375.035.121.018.24-.048.336-.076.112-.215.186-.378.202l-.379.03c-.189.014-.379.027-.567.051-1.308.17-2.352.589-3.191,1.282-.119.098-.239.148-.357.148Z" fill="#a0e9cc"/><path d="M28.185,31.339c-.092,0-.228-.031-.35-.181-.072-.087-.275-.397.121-.728.846-.702,1.858-1.155,3.099-1.383.37-.068.747-.101,1.125-.134,0,0,.389-.035.393-.035.347,0,.534.178.558.464-.043.427-.363.471-.518.493l-.439.059c-.517.068-1.051.138-1.561.254-.75.17-1.438.515-2.043,1.023-.135.112-.261.167-.385.167Z" fill="#a0e9cc"/><path d="M25.887,25.886c-.28,0-.448-.167-.449-.446,0-.174,0-.348,0-.523-.26-.086-.494-.186-.72-.308l-.362.363c-.05.049-.165.164-.333.164-.169,0-.285-.116-.334-.166l-.832-.831c-.213-.214-.213-.439-.001-.653l.37-.369c-.128-.239-.226-.477-.298-.72h-.55c-.271-.003-.438-.171-.439-.44v-1.229c0-.27.169-.438.438-.44h.534c.094-.267.197-.501.315-.721l-.362-.361c-.22-.22-.22-.444,0-.666l.832-.832c.067-.067.175-.159.328-.159.169,0,.287.118.326.157l.367.368c.166-.072.453-.196.574-.247.045-.019.092-.036.14-.05.005-.174.006-.34.007-.505,0-.311.165-.474.449-.474h1.202c.287,0,.452.167.452.455v.511c.259.087.502.192.737.32.111-.119.281-.298.357-.377.065-.069.172-.162.326-.162.165,0,.279.114.322.156l.857.857c.194.197.193.431,0,.627l-.381.382c.125.236.221.474.29.719h.544c.288.001.453.167.453.454v1.202c0,.288-.165.453-.452.454h-.531c-.085.261-.185.495-.304.719l.361.362c.221.222.221.445,0,.666l-.831.832c-.075.075-.181.163-.329.163-.167,0-.282-.116-.331-.166l-.354-.372c-.242.131-.486.233-.738.309l.003.521c0,.289-.164.455-.45.456h-.603s-.601,0-.601,0ZM26.724,25.062v-.444c.002-.234.126-.388.351-.435.355-.074.69-.212.997-.41.057-.037.145-.084.254-.084.148,0,.25.083.313.146l-.06.221.14-.143c.073.071.225.225.229.229l.342-.342-.31-.31c-.165-.164-.187-.354-.062-.551.194-.309.33-.644.404-.994.05-.241.201-.364.449-.365h.451v-.475h-.434c-.271,0-.416-.119-.472-.385-.068-.328-.196-.644-.379-.939-.153-.246-.133-.414.073-.62l.278-.278-.339-.341-.32.316c-.036.035-.143.138-.306.138-.082,0-.163-.026-.247-.081-.312-.201-.65-.341-1.006-.415-.223-.046-.347-.201-.349-.435v-.443h-.469v.416c0,.267-.112.406-.373.467-.343.079-.665.211-.957.395-.076.047-.165.097-.276.097-.165,0-.273-.11-.332-.169l-.281-.285-.343.34.305.304c.172.172.194.363.065.566-.198.311-.336.647-.412,1.001-.048.224-.202.348-.433.351h-.458v.475h.431c.26.002.407.118.463.367.076.337.203.651.379.937.17.277.153.43-.075.655l-.264.261.341.341.302-.304c.036-.036.146-.148.312-.148.083,0,.163.027.253.083.307.194.642.332.996.411.234.053.354.203.355.445v.434h.469Z" fill="#a0e9cc"/><path d="M26.458,23.886c-1.403-.005-2.498-1.115-2.495-2.527.004-1.474,1.074-2.543,2.544-2.543,1.447.012,2.483,1.058,2.521,2.543.016.649-.23,1.268-.694,1.744-.486.498-1.166.784-1.867.784h-.009ZM26.467,19.617c-.925,0-1.682.764-1.687,1.7-.003.496.16.922.471,1.235.317.319.775.501,1.258.501.826,0,1.672-.539,1.704-1.739.012-.429-.153-.841-.464-1.16-.333-.342-.8-.538-1.281-.538h0Z" fill="#a0e9cc"/><path d="M26.218,22.763c-.118-.003-.194-.082-.201-.208-.004-.078-.003-.156-.002-.233v-.043c-.33-.071-.41-.15-.458-.458h-.107s-.081-.066-.081-.066v.066c-.038,0-.076-.001-.113-.006-.109-.014-.177-.085-.182-.189-.006-.115.06-.197.173-.212.058-.008.117-.009.176-.009h.116s.01.007.01.007v-.127s-.164,0-.164,0c-.051-.002-.103-.004-.152-.015-.1-.02-.159-.094-.159-.198,0-.108.067-.184.174-.199.042-.006.085-.007.129-.007h.164s.012.01.012.01c.008-.14.055-.25.142-.336.086-.084.194-.13.319-.136v-.145c.004-.081.005-.136.017-.188.021-.092.092-.148.192-.148.106.002.176.057.193.148.012.061.015.125.017.187.002.057.002.099.002.142h.117v-.177c.002-.049.005-.098.016-.145.022-.097.095-.155.196-.155.107.001.181.065.198.167.008.051.009.104.009.156v.154c.272.028.431.187.465.463l.234.002c.048.002.119.01.165.052.043.039.083.116.072.181-.01.062-.067.143-.132.161-.066.018-.134.019-.199.021l-.114.003-.024-.018v.135h.195c.185.002.279.072.281.208.001.138-.092.209-.277.212h-.092s-.084-.068-.084-.068v.066l-.025-.018c-.006.144-.053.256-.14.342-.089.087-.194.132-.323.138v.114c0,.096,0,.146-.008.195-.017.106-.094.171-.199.171-.108,0-.183-.064-.198-.165-.009-.057-.01-.115-.012-.173l-.002-.14h-.119v.095c0,.096,0,.141-.005.185-.015.124-.092.197-.205.197h-.005ZM26.048,20.823c-.071,0-.075.008-.075.072l-.002.845c0,.118.007.125.121.125l.853-.002c.056,0,.067-.006.067-.072v-.898c0-.062-.005-.07-.077-.071h-.711s-.177,0-.177,0Z" fill="#a0e9cc"/></svg>