<?xml version="1.0" encoding="UTF-8"?><svg id="a" xmlns="http://www.w3.org/2000/svg" viewBox="0 0 52.729 59"><path id="b" d="M26.364,50.394c-.736,0-1.449-.191-2.061-.556l-14.531-8.386c-1.267-.728-2.055-2.091-2.055-3.559v-16.782c0-1.468.788-2.831,2.056-3.559l14.536-8.39c.622-.362,1.332-.554,2.055-.554s1.434.191,2.058.555l.375.224,2.357,1.365c.072-.011.146-.017.224-.017.884,0,1.604.719,1.604,1.604s-.72,1.604-1.604,1.604c-.836,0-1.525-.644-1.598-1.462l-2.152-1.23-.095-.083-.203-.096c-.302-.169-.633-.258-.964-.258s-.664.088-.958.254l-14.531,8.388c-.586.344-.952.977-.952,1.654v16.782c0,.677.366,1.312.955,1.656l14.534,8.389c.286.162.616.25.952.25s.668-.087.955-.252l14.534-8.389c.587-.343.953-.977.953-1.654v-11.9c0-.619.483-1.103,1.103-1.103s1.103.484,1.103,1.103v11.9c0,1.468-.788,2.831-2.056,3.559l-14.535,8.39c-.608.36-1.319.552-2.056.552h-.003Z" fill="#66d3fa"/><path id="c" d="M28.495,58.94c-.062.034-.211.06-.362.06-.471,0-.905-.253-1.134-.659-.113-.225-.163-.425-.163-.644,0-.467.252-.899.658-1.129l21.779-12.578c.525-.308.853-.875.853-1.482v-25.464c0-.606-.328-1.174-.856-1.483L27.217,2.832c-.259-.146-.554-.224-.852-.224s-.596.079-.859.228L3.457,15.564c-.524.307-.852.875-.852,1.481v25.464c0,.606.328,1.175.856,1.483l7.559,4.357c.101-.017.203-.025.308-.025.905,0,1.672.679,1.786,1.579.019.084.019.176.019.226,0,.563-.275,1.109-.737,1.46-.334.232-.69.345-1.068.345-.848,0-1.58-.598-1.761-1.412l-7.412-4.28c-1.329-.763-2.155-2.194-2.155-3.732v-25.464c0-1.539.826-2.969,2.156-3.733L24.209.58c.651-.38,1.397-.58,2.155-.58s1.505.202,2.158.582l22.053,12.731c1.328.763,2.154,2.194,2.154,3.732v25.464c0,1.539-.826,2.969-2.156,3.733l-18.113,10.451" fill="#66d3fa"/><path d="M33.444,23.447h-14.166c-1.658,0-3.018,1.352-3.018,3.018v8.451c0,.805.314,1.562.885,2.133.797.797,1.763.885,2.133.885h3.244v3.373c.072.394.427.692.837.692.225,0,.443-.097.596-.25,0,0,.008,0,.008-.008l1.666-.942,2.423-1.368,2.64-1.497h2.753c1.666,0,3.026-1.352,3.026-3.018v-8.451c0-1.666-1.36-3.018-3.026-3.018ZM35.263,34.917c0,.998-.813,1.811-1.819,1.811h-3.067l-2.133,1.207-.95.539h-.52v-2.851c.886-.089,1.712-.459,2.35-1.097.732-.732,1.136-1.706,1.136-2.741,0-.228-.185-.414-.414-.414s-.414.185-.414.414c0,.815-.317,1.58-.893,2.156s-1.342.893-2.156.893h-.045c-.815,0-1.58-.317-2.156-.893s-.893-1.342-.893-2.156c0-.228-.185-.414-.414-.414s-.414.185-.414.414c0,1.036.403,2.009,1.135,2.741.638.638,1.464,1.008,2.35,1.097v2.851h-2.218v-1.747h-4.443c-.177,0-.789-.04-1.288-.531-.338-.346-.531-.797-.531-1.28v-8.451c0-.998.813-1.811,1.811-1.811h14.166c1.006,0,1.819.813,1.819,1.811v8.451Z" fill="#66d3fa"/><rect x="24.108" y="25.615" width="4.504" height="8.4" rx="2.23" ry="2.23" fill="#66d3fa"/><path d="M30.843,20.862c-.063,0-.118.025-.177.036-.019-.021-.035-.047-.053-.066-.579-.617-1.331-1.093-2.297-1.454-.628-.234-1.255-.353-1.864-.353-.334,0-.669.035-.997.105-.955.203-1.861.613-2.693,1.219-.252.184-.434.341-.59.509-.015.016-.02.039-.032.056-.085-.023-.168-.053-.261-.053-.555,0-1.006.451-1.006,1.006s.451,1.006,1.006,1.006,1.006-.451,1.006-1.006c0-.045-.02-.084-.026-.128.028-.016.06-.026.084-.046.024-.019.045-.042.079-.081.566-.608,1.265-1.034,2.077-1.266.466-.134.926-.201,1.367-.201,1.136,0,2.21.451,3.192,1.339l.097.096c.037.038.078.071.117.106-.012.061-.037.118-.037.182,0,.555.451,1.006,1.006,1.006s1.006-.451,1.006-1.006-.451-1.006-1.006-1.006ZM21.677,21.868c0-.111.09-.201.201-.201s.201.09.201.201c0,.222-.402.222-.402,0ZM30.642,21.868c0-.111.09-.201.201-.201s.201.09.201.201c0,.222-.402.222-.402,0Z" fill="#66d3fa"/><path d="M32.5,18.346c-.051,0-.095.022-.144.029-.059-.08-.125-.15-.191-.21-.536-.485-1.17-.897-1.992-1.298-1.156-.564-2.348-.852-3.531-.857-.103-.007-.206-.011-.309-.011-.144,0-.289.007-.434.018-.884.067-1.799.301-2.799.715-.867.359-1.649.855-2.39,1.517-.125.112-.222.223-.308.336-.06-.011-.116-.036-.18-.036-.555,0-1.006.451-1.006,1.006s.451,1.006,1.006,1.006,1.006-.451,1.006-1.006c0-.072-.027-.135-.041-.203.078-.067.153-.136.229-.206.068-.064.136-.127.207-.189,1.419-1.233,3.022-1.859,4.766-1.859.426,0,.868.037,1.313.111,1.314.218,2.509.775,3.552,1.656.057.049.111.101.166.152.039.038.08.073.12.11-.018.074-.045.145-.045.225,0,.555.451,1.006,1.006,1.006s1.006-.451,1.006-1.006-.451-1.006-1.006-1.006ZM20.02,19.555c0-.111.09-.201.201-.201s.201.09.201.201c0,.222-.402.222-.402,0ZM32.298,19.352c0-.111.09-.201.201-.201s.201.09.201.201c0,.222-.402.222-.402,0Z" fill="#66d3fa"/></svg>